STARTFONT 2.1
FONT -Topaz Unicode KS13 16-Regular-R-Regular--16-16-75-75-c-80-iso10646-1
SIZE 16 75 75
FONTBOUNDINGBOX 8 16 0 -2
STARTPROPERTIES 9
FAMILY_NAME "Topaz Unicode KS13 16"
WEIGHT_NAME "Regular"
FONT_VERSION "1.0"
FOUNDRY "Screwtapello"
FONT_ASCENT 14
FONT_DESCENT 2
POINT_SIZE 16
X_HEIGHT 10
CAP_HEIGHT 14
ENDPROPERTIES
CHARS 826
STARTCHAR U+0020
ENCODING 32
SWIDTH 1000 0
DWIDTH 8 0
BBX 0 0 0 0
BITMAP
ENDCHAR
STARTCHAR U+0021
ENCODING 33
SWIDTH 1000 0
DWIDTH 8 0
BBX 4 14 2 0
BITMAP
60
60
F0
F0
F0
F0
60
60
60
60
00
00
60
60
ENDCHAR
STARTCHAR U+0022
ENCODING 34
SWIDTH 1000 0
DWIDTH 8 0
BBX 5 4 1 10
BITMAP
D8
D8
D8
D8
ENDCHAR
STARTCHAR U+0023
ENCODING 35
SWIDTH 1000 0
DWIDTH 8 0
BBX 7 14 0 0
BITMAP
6C
6C
6C
6C
FE
FE
6C
6C
FE
FE
6C
6C
6C
6C
ENDCHAR
STARTCHAR U+0024
ENCODING 36
SWIDTH 1000 0
DWIDTH 8 0
BBX 6 14 1 0
BITMAP
30
30
7C
7C
C0
C0
78
78
0C
0C
F8
F8
30
30
ENDCHAR
STARTCHAR U+0025
ENCODING 37
SWIDTH 1000 0
DWIDTH 8 0
BBX 7 12 0 0
BITMAP
C6
C6
CC
CC
18
18
30
30
66
66
C6
C6
ENDCHAR
STARTCHAR U+0026
ENCODING 38
SWIDTH 1000 0
DWIDTH 8 0
BBX 7 14 0 0
BITMAP
38
38
6C
6C
68
68
76
76
DC
DC
CC
CC
76
76
ENDCHAR
STARTCHAR U+0027
ENCODING 39
SWIDTH 1000 0
DWIDTH 8 0
BBX 3 6 2 8
BITMAP
60
60
60
60
C0
C0
ENDCHAR
STARTCHAR U+0028
ENCODING 40
SWIDTH 1000 0
DWIDTH 8 0
BBX 4 14 2 0
BITMAP
30
30
60
60
C0
C0
C0
C0
C0
C0
60
60
30
30
ENDCHAR
STARTCHAR U+0029
ENCODING 41
SWIDTH 1000 0
DWIDTH 8 0
BBX 4 14 2 0
BITMAP
C0
C0
60
60
30
30
30
30
30
30
60
60
C0
C0
ENDCHAR
STARTCHAR U+002A
ENCODING 42
SWIDTH 1000 0
DWIDTH 8 0
BBX 8 10 0 2
BITMAP
66
66
3C
3C
FF
FF
3C
3C
66
66
ENDCHAR
STARTCHAR U+002B
ENCODING 43
SWIDTH 1000 0
DWIDTH 8 0
BBX 6 10 1 2
BITMAP
30
30
30
30
FC
FC
30
30
30
30
ENDCHAR
STARTCHAR U+002C
ENCODING 44
SWIDTH 1000 0
DWIDTH 8 0
BBX 3 6 2 -2
BITMAP
60
60
60
60
C0
C0
ENDCHAR
STARTCHAR U+002D
ENCODING 45
SWIDTH 1000 0
DWIDTH 8 0
BBX 6 2 1 6
BITMAP
FC
FC
ENDCHAR
STARTCHAR U+002E
ENCODING 46
SWIDTH 1000 0
DWIDTH 8 0
BBX 2 4 3 0
BITMAP
C0
C0
C0
C0
ENDCHAR
STARTCHAR U+002F
ENCODING 47
SWIDTH 1000 0
DWIDTH 8 0
BBX 8 14 0 0
BITMAP
03
03
06
06
0C
0C
18
18
30
30
60
60
C0
C0
ENDCHAR
STARTCHAR U+0030
ENCODING 48
SWIDTH 1000 0
DWIDTH 8 0
BBX 6 14 1 0
BITMAP
78
78
CC
CC
DC
DC
FC
FC
EC
EC
CC
CC
78
78
ENDCHAR
STARTCHAR U+0031
ENCODING 49
SWIDTH 1000 0
DWIDTH 8 0
BBX 6 14 1 0
BITMAP
30
30
70
70
30
30
30
30
30
30
30
30
FC
FC
ENDCHAR
STARTCHAR U+0032
ENCODING 50
SWIDTH 1000 0
DWIDTH 8 0
BBX 6 14 1 0
BITMAP
78
78
CC
CC
0C
0C
38
38
60
60
CC
CC
FC
FC
ENDCHAR
STARTCHAR U+0033
ENCODING 51
SWIDTH 1000 0
DWIDTH 8 0
BBX 6 14 1 0
BITMAP
78
78
CC
CC
0C
0C
38
38
0C
0C
CC
CC
78
78
ENDCHAR
STARTCHAR U+0034
ENCODING 52
SWIDTH 1000 0
DWIDTH 8 0
BBX 7 14 0 0
BITMAP
1C
1C
3C
3C
6C
6C
CC
CC
FE
FE
0C
0C
1E
1E
ENDCHAR
STARTCHAR U+0035
ENCODING 53
SWIDTH 1000 0
DWIDTH 8 0
BBX 6 14 1 0
BITMAP
FC
FC
C0
C0
F8
F8
0C
0C
0C
0C
CC
CC
78
78
ENDCHAR
STARTCHAR U+0036
ENCODING 54
SWIDTH 1000 0
DWIDTH 8 0
BBX 6 14 1 0
BITMAP
38
38
60
60
C0
C0
F8
F8
CC
CC
CC
CC
78
78
ENDCHAR
STARTCHAR U+0037
ENCODING 55
SWIDTH 1000 0
DWIDTH 8 0
BBX 6 14 1 0
BITMAP
FC
FC
CC
CC
0C
0C
18
18
30
30
30
30
30
30
ENDCHAR
STARTCHAR U+0038
ENCODING 56
SWIDTH 1000 0
DWIDTH 8 0
BBX 6 14 1 0
BITMAP
78
78
CC
CC
CC
CC
78
78
CC
CC
CC
CC
78
78
ENDCHAR
STARTCHAR U+0039
ENCODING 57
SWIDTH 1000 0
DWIDTH 8 0
BBX 6 14 1 0
BITMAP
78
78
CC
CC
CC
CC
7C
7C
0C
0C
18
18
70
70
ENDCHAR
STARTCHAR U+003A
ENCODING 58
SWIDTH 1000 0
DWIDTH 8 0
BBX 2 12 3 0
BITMAP
C0
C0
C0
C0
00
00
00
00
C0
C0
C0
C0
ENDCHAR
STARTCHAR U+003B
ENCODING 59
SWIDTH 1000 0
DWIDTH 8 0
BBX 3 14 2 -2
BITMAP
60
60
60
60
00
00
00
00
60
60
60
60
C0
C0
ENDCHAR
STARTCHAR U+003C
ENCODING 60
SWIDTH 1000 0
DWIDTH 8 0
BBX 5 14 1 0
BITMAP
18
18
30
30
60
60
C0
C0
60
60
30
30
18
18
ENDCHAR
STARTCHAR U+003D
ENCODING 61
SWIDTH 1000 0
DWIDTH 8 0
BBX 6 8 1 2
BITMAP
FC
FC
00
00
00
00
FC
FC
ENDCHAR
STARTCHAR U+003E
ENCODING 62
SWIDTH 1000 0
DWIDTH 8 0
BBX 5 14 2 0
BITMAP
C0
C0
60
60
30
30
18
18
30
30
60
60
C0
C0
ENDCHAR
STARTCHAR U+003F
ENCODING 63
SWIDTH 1000 0
DWIDTH 8 0
BBX 6 14 1 0
BITMAP
78
78
CC
CC
0C
0C
18
18
30
30
00
00
30
30
ENDCHAR
STARTCHAR U+0040
ENCODING 64
SWIDTH 1000 0
DWIDTH 8 0
BBX 7 14 0 0
BITMAP
7C
7C
C6
C6
DE
DE
DE
DE
DE
DE
C0
C0
78
78
ENDCHAR
STARTCHAR U+0041
ENCODING 65
SWIDTH 1000 0
DWIDTH 8 0
BBX 8 14 0 0
BITMAP
18
18
3C
3C
3C
3C
66
66
7E
7E
C3
C3
C3
C3
ENDCHAR
STARTCHAR U+0042
ENCODING 66
SWIDTH 1000 0
DWIDTH 8 0
BBX 7 14 0 0
BITMAP
FC
FC
66
66
66
66
7C
7C
66
66
66
66
FC
FC
ENDCHAR
STARTCHAR U+0043
ENCODING 67
SWIDTH 1000 0
DWIDTH 8 0
BBX 7 14 0 0
BITMAP
3C
3C
66
66
C0
C0
C0
C0
C0
C0
66
66
3C
3C
ENDCHAR
STARTCHAR U+0044
ENCODING 68
SWIDTH 1000 0
DWIDTH 8 0
BBX 7 14 0 0
BITMAP
F8
F8
6C
6C
66
66
66
66
66
66
6C
6C
F8
F8
ENDCHAR
STARTCHAR U+0045
ENCODING 69
SWIDTH 1000 0
DWIDTH 8 0
BBX 7 14 0 0
BITMAP
FE
FE
66
66
60
60
78
78
60
60
66
66
FE
FE
ENDCHAR
STARTCHAR U+0046
ENCODING 70
SWIDTH 1000 0
DWIDTH 8 0
BBX 7 14 0 0
BITMAP
FE
FE
66
66
60
60
78
78
60
60
60
60
F0
F0
ENDCHAR
STARTCHAR U+0047
ENCODING 71
SWIDTH 1000 0
DWIDTH 8 0
BBX 7 14 0 0
BITMAP
3C
3C
66
66
C0
C0
CE
CE
C6
C6
66
66
3E
3E
ENDCHAR
STARTCHAR U+0048
ENCODING 72
SWIDTH 1000 0
DWIDTH 8 0
BBX 6 14 1 0
BITMAP
CC
CC
CC
CC
CC
CC
FC
FC
CC
CC
CC
CC
CC
CC
ENDCHAR
STARTCHAR U+0049
ENCODING 73
SWIDTH 1000 0
DWIDTH 8 0
BBX 6 14 1 0
BITMAP
FC
FC
30
30
30
30
30
30
30
30
30
30
FC
FC
ENDCHAR
STARTCHAR U+004A
ENCODING 74
SWIDTH 1000 0
DWIDTH 8 0
BBX 6 14 1 0
BITMAP
1C
1C
0C
0C
0C
0C
0C
0C
CC
CC
CC
CC
78
78
ENDCHAR
STARTCHAR U+004B
ENCODING 75
SWIDTH 1000 0
DWIDTH 8 0
BBX 7 14 0 0
BITMAP
E6
E6
66
66
6C
6C
78
78
6C
6C
66
66
E6
E6
ENDCHAR
STARTCHAR U+004C
ENCODING 76
SWIDTH 1000 0
DWIDTH 8 0
BBX 7 14 0 0
BITMAP
F0
F0
60
60
60
60
60
60
62
62
66
66
FE
FE
ENDCHAR
STARTCHAR U+004D
ENCODING 77
SWIDTH 1000 0
DWIDTH 8 0
BBX 7 14 0 0
BITMAP
82
82
C6
C6
EE
EE
FE
FE
D6
D6
C6
C6
C6
C6
ENDCHAR
STARTCHAR U+004E
ENCODING 78
SWIDTH 1000 0
DWIDTH 8 0
BBX 7 14 0 0
BITMAP
C6
C6
E6
E6
F6
F6
DE
DE
CE
CE
C6
C6
C6
C6
ENDCHAR
STARTCHAR U+004F
ENCODING 79
SWIDTH 1000 0
DWIDTH 8 0
BBX 7 14 0 0
BITMAP
38
38
6C
6C
C6
C6
C6
C6
C6
C6
6C
6C
38
38
ENDCHAR
STARTCHAR U+0050
ENCODING 80
SWIDTH 1000 0
DWIDTH 8 0
BBX 7 14 0 0
BITMAP
FC
FC
66
66
66
66
7C
7C
60
60
60
60
F0
F0
ENDCHAR
STARTCHAR U+0051
ENCODING 81
SWIDTH 1000 0
DWIDTH 8 0
BBX 7 16 0 -2
BITMAP
38
38
6C
6C
C6
C6
C6
C6
C6
C6
6C
6C
3C
3C
06
06
ENDCHAR
STARTCHAR U+0052
ENCODING 82
SWIDTH 1000 0
DWIDTH 8 0
BBX 8 14 0 0
BITMAP
FC
FC
66
66
66
66
7C
7C
6C
6C
66
66
E3
E3
ENDCHAR
STARTCHAR U+0053
ENCODING 83
SWIDTH 1000 0
DWIDTH 8 0
BBX 6 14 1 0
BITMAP
78
78
CC
CC
E0
E0
70
70
1C
1C
CC
CC
78
78
ENDCHAR
STARTCHAR U+0054
ENCODING 84
SWIDTH 1000 0
DWIDTH 8 0
BBX 6 14 1 0
BITMAP
FC
FC
B4
B4
30
30
30
30
30
30
30
30
78
78
ENDCHAR
STARTCHAR U+0055
ENCODING 85
SWIDTH 1000 0
DWIDTH 8 0
BBX 6 14 1 0
BITMAP
CC
CC
CC
CC
CC
CC
CC
CC
CC
CC
CC
CC
7C
7C
ENDCHAR
STARTCHAR U+0056
ENCODING 86
SWIDTH 1000 0
DWIDTH 8 0
BBX 8 14 0 0
BITMAP
C3
C3
C3
C3
66
66
66
66
3C
3C
3C
3C
18
18
ENDCHAR
STARTCHAR U+0057
ENCODING 87
SWIDTH 1000 0
DWIDTH 8 0
BBX 7 14 0 0
BITMAP
C6
C6
C6
C6
C6
C6
D6
D6
FE
FE
EE
EE
C6
C6
ENDCHAR
STARTCHAR U+0058
ENCODING 88
SWIDTH 1000 0
DWIDTH 8 0
BBX 8 14 0 0
BITMAP
C3
C3
66
66
3C
3C
18
18
3C
3C
66
66
C3
C3
ENDCHAR
STARTCHAR U+0059
ENCODING 89
SWIDTH 1000 0
DWIDTH 8 0
BBX 8 14 0 0
BITMAP
C3
C3
C3
C3
66
66
3C
3C
18
18
18
18
3C
3C
ENDCHAR
STARTCHAR U+005A
ENCODING 90
SWIDTH 1000 0
DWIDTH 8 0
BBX 7 14 0 0
BITMAP
FE
FE
C6
C6
8C
8C
18
18
32
32
66
66
FE
FE
ENDCHAR
STARTCHAR U+005B
ENCODING 91
SWIDTH 1000 0
DWIDTH 8 0
BBX 4 14 2 0
BITMAP
F0
F0
C0
C0
C0
C0
C0
C0
C0
C0
C0
C0
F0
F0
ENDCHAR
STARTCHAR U+005C
ENCODING 92
SWIDTH 1000 0
DWIDTH 8 0
BBX 8 14 0 0
BITMAP
C0
C0
60
60
30
30
18
18
0C
0C
06
06
03
03
ENDCHAR
STARTCHAR U+005D
ENCODING 93
SWIDTH 1000 0
DWIDTH 8 0
BBX 4 14 2 0
BITMAP
F0
F0
30
30
30
30
30
30
30
30
30
30
F0
F0
ENDCHAR
STARTCHAR U+005E
ENCODING 94
SWIDTH 1000 0
DWIDTH 8 0
BBX 7 8 0 6
BITMAP
10
10
38
38
6C
6C
C6
C6
ENDCHAR
STARTCHAR U+005F
ENCODING 95
SWIDTH 1000 0
DWIDTH 8 0
BBX 7 2 0 -2
BITMAP
FE
FE
ENDCHAR
STARTCHAR U+0060
ENCODING 96
SWIDTH 1000 0
DWIDTH 8 0
BBX 3 6 3 8
BITMAP
C0
C0
C0
C0
60
60
ENDCHAR
STARTCHAR U+0061
ENCODING 97
SWIDTH 1000 0
DWIDTH 8 0
BBX 7 10 1 0
BITMAP
78
78
0C
0C
3C
3C
CC
CC
76
76
ENDCHAR
STARTCHAR U+0062
ENCODING 98
SWIDTH 1000 0
DWIDTH 8 0
BBX 7 14 0 0
BITMAP
E0
E0
60
60
6C
6C
76
76
66
66
66
66
3C
3C
ENDCHAR
STARTCHAR U+0063
ENCODING 99
SWIDTH 1000 0
DWIDTH 8 0
BBX 6 10 1 0
BITMAP
78
78
CC
CC
C0
C0
CC
CC
78
78
ENDCHAR
STARTCHAR U+0064
ENCODING 100
SWIDTH 1000 0
DWIDTH 8 0
BBX 7 14 1 0
BITMAP
1C
1C
0C
0C
6C
6C
DC
DC
CC
CC
CC
CC
76
76
ENDCHAR
STARTCHAR U+0065
ENCODING 101
SWIDTH 1000 0
DWIDTH 8 0
BBX 6 10 1 0
BITMAP
78
78
CC
CC
FC
FC
C0
C0
78
78
ENDCHAR
STARTCHAR U+0066
ENCODING 102
SWIDTH 1000 0
DWIDTH 8 0
BBX 6 14 1 0
BITMAP
38
38
6C
6C
60
60
F0
F0
60
60
60
60
F0
F0
ENDCHAR
STARTCHAR U+0067
ENCODING 103
SWIDTH 1000 0
DWIDTH 8 0
BBX 8 12 0 -2
BITMAP
3B
3B
66
66
66
66
3C
3C
C6
C6
7C
7C
ENDCHAR
STARTCHAR U+0068
ENCODING 104
SWIDTH 1000 0
DWIDTH 8 0
BBX 7 14 0 0
BITMAP
E0
E0
60
60
6C
6C
76
76
66
66
66
66
E6
E6
ENDCHAR
STARTCHAR U+0069
ENCODING 105
SWIDTH 1000 0
DWIDTH 8 0
BBX 4 14 2 0
BITMAP
60
60
00
00
E0
E0
60
60
60
60
60
60
F0
F0
ENDCHAR
STARTCHAR U+006A
ENCODING 106
SWIDTH 1000 0
DWIDTH 8 0
BBX 6 16 1 -2
BITMAP
0C
0C
00
00
0C
0C
0C
0C
0C
0C
0C
0C
CC
CC
78
78
ENDCHAR
STARTCHAR U+006B
ENCODING 107
SWIDTH 1000 0
DWIDTH 8 0
BBX 7 14 0 0
BITMAP
E0
E0
60
60
66
66
6C
6C
78
78
6C
6C
E6
E6
ENDCHAR
STARTCHAR U+006C
ENCODING 108
SWIDTH 1000 0
DWIDTH 8 0
BBX 4 14 2 0
BITMAP
E0
E0
60
60
60
60
60
60
60
60
60
60
F0
F0
ENDCHAR
STARTCHAR U+006D
ENCODING 109
SWIDTH 1000 0
DWIDTH 8 0
BBX 7 10 1 0
BITMAP
CC
CC
EE
EE
D6
D6
C6
C6
C6
C6
ENDCHAR
STARTCHAR U+006E
ENCODING 110
SWIDTH 1000 0
DWIDTH 8 0
BBX 6 10 1 0
BITMAP
F8
F8
CC
CC
CC
CC
CC
CC
CC
CC
ENDCHAR
STARTCHAR U+006F
ENCODING 111
SWIDTH 1000 0
DWIDTH 8 0
BBX 6 10 1 0
BITMAP
78
78
CC
CC
CC
CC
CC
CC
78
78
ENDCHAR
STARTCHAR U+0070
ENCODING 112
SWIDTH 1000 0
DWIDTH 8 0
BBX 7 12 0 -2
BITMAP
DC
DC
66
66
66
66
7C
7C
60
60
F0
F0
ENDCHAR
STARTCHAR U+0071
ENCODING 113
SWIDTH 1000 0
DWIDTH 8 0
BBX 7 12 1 -2
BITMAP
7A
7A
CC
CC
CC
CC
7C
7C
0C
0C
0E
0E
ENDCHAR
STARTCHAR U+0072
ENCODING 114
SWIDTH 1000 0
DWIDTH 8 0
BBX 7 10 0 0
BITMAP
EC
EC
76
76
66
66
60
60
F0
F0
ENDCHAR
STARTCHAR U+0073
ENCODING 115
SWIDTH 1000 0
DWIDTH 8 0
BBX 6 10 1 0
BITMAP
7C
7C
C0
C0
78
78
0C
0C
F8
F8
ENDCHAR
STARTCHAR U+0074
ENCODING 116
SWIDTH 1000 0
DWIDTH 8 0
BBX 5 14 2 0
BITMAP
20
20
60
60
F8
F8
60
60
60
60
68
68
30
30
ENDCHAR
STARTCHAR U+0075
ENCODING 117
SWIDTH 1000 0
DWIDTH 8 0
BBX 7 10 1 0
BITMAP
CC
CC
CC
CC
CC
CC
CC
CC
76
76
ENDCHAR
STARTCHAR U+0076
ENCODING 118
SWIDTH 1000 0
DWIDTH 8 0
BBX 6 10 1 0
BITMAP
CC
CC
CC
CC
CC
CC
78
78
30
30
ENDCHAR
STARTCHAR U+0077
ENCODING 119
SWIDTH 1000 0
DWIDTH 8 0
BBX 7 10 1 0
BITMAP
C6
C6
D6
D6
D6
D6
6C
6C
6C
6C
ENDCHAR
STARTCHAR U+0078
ENCODING 120
SWIDTH 1000 0
DWIDTH 8 0
BBX 7 10 1 0
BITMAP
C6
C6
6C
6C
38
38
6C
6C
C6
C6
ENDCHAR
STARTCHAR U+0079
ENCODING 121
SWIDTH 1000 0
DWIDTH 8 0
BBX 6 12 1 -2
BITMAP
CC
CC
CC
CC
CC
CC
78
78
30
30
E0
E0
ENDCHAR
STARTCHAR U+007A
ENCODING 122
SWIDTH 1000 0
DWIDTH 8 0
BBX 6 10 1 0
BITMAP
FC
FC
98
98
30
30
64
64
FC
FC
ENDCHAR
STARTCHAR U+007B
ENCODING 123
SWIDTH 1000 0
DWIDTH 8 0
BBX 6 14 1 0
BITMAP
1C
1C
30
30
30
30
E0
E0
30
30
30
30
1C
1C
ENDCHAR
STARTCHAR U+007C
ENCODING 124
SWIDTH 1000 0
DWIDTH 8 0
BBX 2 14 3 0
BITMAP
C0
C0
C0
C0
C0
C0
C0
C0
C0
C0
C0
C0
C0
C0
ENDCHAR
STARTCHAR U+007D
ENCODING 125
SWIDTH 1000 0
DWIDTH 8 0
BBX 6 14 1 0
BITMAP
E0
E0
30
30
30
30
1C
1C
30
30
30
30
E0
E0
ENDCHAR
STARTCHAR U+007E
ENCODING 126
SWIDTH 1000 0
DWIDTH 8 0
BBX 7 4 0 10
BITMAP
72
72
9C
9C
ENDCHAR
STARTCHAR U+00A1
ENCODING 161
SWIDTH 1000 0
DWIDTH 8 0
BBX 4 14 2 0
BITMAP
60
60
00
00
60
60
60
60
F0
F0
F0
F0
60
60
ENDCHAR
STARTCHAR U+00A2
ENCODING 162
SWIDTH 1000 0
DWIDTH 8 0
BBX 6 12 1 2
BITMAP
18
18
7C
7C
D8
D8
D8
D8
7C
7C
18
18
ENDCHAR
STARTCHAR U+00A3
ENCODING 163
SWIDTH 1000 0
DWIDTH 8 0
BBX 6 14 1 0
BITMAP
38
38
6C
6C
60
60
F0
F0
60
60
60
60
FC
FC
ENDCHAR
STARTCHAR U+00A4
ENCODING 164
SWIDTH 1000 0
DWIDTH 8 0
BBX 6 10 1 4
BITMAP
84
84
78
78
CC
CC
78
78
84
84
ENDCHAR
STARTCHAR U+00A5
ENCODING 165
SWIDTH 1000 0
DWIDTH 8 0
BBX 8 14 0 0
BITMAP
C3
C3
66
66
3C
3C
18
18
3C
3C
18
18
3C
3C
ENDCHAR
STARTCHAR U+00A6
ENCODING 166
SWIDTH 1000 0
DWIDTH 8 0
BBX 2 14 3 0
BITMAP
C0
C0
C0
C0
C0
C0
00
00
C0
C0
C0
C0
C0
C0
ENDCHAR
STARTCHAR U+00A7
ENCODING 167
SWIDTH 1000 0
DWIDTH 8 0
BBX 6 14 1 0
BITMAP
78
78
80
80
78
78
CC
CC
78
78
04
04
78
78
ENDCHAR
STARTCHAR U+00A8
ENCODING 168
SWIDTH 1000 0
DWIDTH 8 0
BBX 6 2 1 12
BITMAP
CC
CC
ENDCHAR
STARTCHAR U+00A9
ENCODING 169
SWIDTH 1000 0
DWIDTH 8 0
BBX 8 16 0 -2
BITMAP
7E
7E
81
81
9D
9D
B1
B1
B1
B1
9D
9D
81
81
7E
7E
ENDCHAR
STARTCHAR U+00AA
ENCODING 170
SWIDTH 1000 0
DWIDTH 8 0
BBX 6 12 0 2
BITMAP
30
30
48
48
88
88
F8
F8
00
00
FC
FC
ENDCHAR
STARTCHAR U+00AB
ENCODING 171
SWIDTH 1000 0
DWIDTH 8 0
BBX 8 10 0 2
BITMAP
33
33
66
66
CC
CC
66
66
33
33
ENDCHAR
STARTCHAR U+00AC
ENCODING 172
SWIDTH 1000 0
DWIDTH 8 0
BBX 5 4 2 10
BITMAP
F8
F8
18
18
ENDCHAR
STARTCHAR U+00AD
ENCODING 173
SWIDTH 1000 0
DWIDTH 8 0
BBX 6 4 1 6
BITMAP
FC
FC
FC
FC
ENDCHAR
STARTCHAR U+00AE
ENCODING 174
SWIDTH 1000 0
DWIDTH 8 0
BBX 8 16 0 -2
BITMAP
7E
7E
81
81
B9
B9
B9
B9
B1
B1
A9
A9
81
81
7E
7E
ENDCHAR
STARTCHAR U+00AF
ENCODING 175
SWIDTH 1000 0
DWIDTH 8 0
BBX 6 2 1 12
BITMAP
FC
FC
ENDCHAR
STARTCHAR U+00B0
ENCODING 176
SWIDTH 1000 0
DWIDTH 8 0
BBX 6 6 1 8
BITMAP
78
78
CC
CC
78
78
ENDCHAR
STARTCHAR U+00B1
ENCODING 177
SWIDTH 1000 0
DWIDTH 8 0
BBX 6 14 1 0
BITMAP
30
30
30
30
FC
FC
30
30
30
30
00
00
FC
FC
ENDCHAR
STARTCHAR U+00B2
ENCODING 178
SWIDTH 1000 0
DWIDTH 8 0
BBX 5 10 0 4
BITMAP
F0
F0
18
18
30
30
60
60
F8
F8
ENDCHAR
STARTCHAR U+00B3
ENCODING 179
SWIDTH 1000 0
DWIDTH 8 0
BBX 5 10 0 4
BITMAP
F0
F0
18
18
30
30
18
18
F0
F0
ENDCHAR
STARTCHAR U+00B4
ENCODING 180
SWIDTH 1000 0
DWIDTH 8 0
BBX 3 4 2 10
BITMAP
60
60
C0
C0
ENDCHAR
STARTCHAR U+00B5
ENCODING 181
SWIDTH 1000 0
DWIDTH 8 0
BBX 7 12 0 -2
BITMAP
C6
C6
C6
C6
C6
C6
EE
EE
FA
FA
C0
C0
ENDCHAR
STARTCHAR U+00B6
ENCODING 182
SWIDTH 1000 0
DWIDTH 8 0
BBX 7 14 0 0
BITMAP
7E
7E
F4
F4
F4
F4
74
74
14
14
14
14
14
14
ENDCHAR
STARTCHAR U+00B7
ENCODING 183
SWIDTH 1000 0
DWIDTH 8 0
BBX 2 4 3 6
BITMAP
C0
C0
C0
C0
ENDCHAR
STARTCHAR U+00B8
ENCODING 184
SWIDTH 1000 0
DWIDTH 8 0
BBX 3 4 2 -2
BITMAP
60
60
C0
C0
ENDCHAR
STARTCHAR U+00B9
ENCODING 185
SWIDTH 1000 0
DWIDTH 8 0
BBX 3 10 1 4
BITMAP
60
60
E0
E0
60
60
60
60
60
60
ENDCHAR
STARTCHAR U+00BA
ENCODING 186
SWIDTH 1000 0
DWIDTH 8 0
BBX 5 12 0 2
BITMAP
70
70
88
88
88
88
70
70
00
00
F8
F8
ENDCHAR
STARTCHAR U+00BB
ENCODING 187
SWIDTH 1000 0
DWIDTH 8 0
BBX 8 10 0 2
BITMAP
CC
CC
66
66
33
33
66
66
CC
CC
ENDCHAR
STARTCHAR U+00BC
ENCODING 188
SWIDTH 1000 0
DWIDTH 8 0
BBX 7 16 1 -2
BITMAP
40
40
C6
C6
4C
4C
58
58
32
32
66
66
CE
CE
02
02
ENDCHAR
STARTCHAR U+00BD
ENCODING 189
SWIDTH 1000 0
DWIDTH 8 0
BBX 7 16 1 -2
BITMAP
40
40
C6
C6
4C
4C
58
58
36
36
62
62
C4
C4
0E
0E
ENDCHAR
STARTCHAR U+00BE
ENCODING 190
SWIDTH 1000 0
DWIDTH 8 0
BBX 8 16 0 -2
BITMAP
C0
C0
23
23
66
66
2C
2C
D9
D9
33
33
67
67
01
01
ENDCHAR
STARTCHAR U+00BF
ENCODING 191
SWIDTH 1000 0
DWIDTH 8 0
BBX 6 14 1 0
BITMAP
30
30
00
00
30
30
60
60
C0
C0
CC
CC
78
78
ENDCHAR
STARTCHAR U+00C0
ENCODING 192
SWIDTH 1000 0
DWIDTH 8 0
BBX 8 14 0 0
BITMAP
30
30
08
08
3C
3C
66
66
7E
7E
C3
C3
C3
C3
ENDCHAR
STARTCHAR U+00C1
ENCODING 193
SWIDTH 1000 0
DWIDTH 8 0
BBX 8 14 0 0
BITMAP
0C
0C
10
10
3C
3C
66
66
7E
7E
C3
C3
C3
C3
ENDCHAR
STARTCHAR U+00C2
ENCODING 194
SWIDTH 1000 0
DWIDTH 8 0
BBX 8 14 0 0
BITMAP
18
18
24
24
3C
3C
66
66
7E
7E
C3
C3
C3
C3
ENDCHAR
STARTCHAR U+00C3
ENCODING 195
SWIDTH 1000 0
DWIDTH 8 0
BBX 8 14 0 0
BITMAP
71
71
8E
8E
3C
3C
66
66
7E
7E
C3
C3
C3
C3
ENDCHAR
STARTCHAR U+00C4
ENCODING 196
SWIDTH 1000 0
DWIDTH 8 0
BBX 8 14 0 0
BITMAP
C3
C3
18
18
3C
3C
66
66
7E
7E
C3
C3
C3
C3
ENDCHAR
STARTCHAR U+00C5
ENCODING 197
SWIDTH 1000 0
DWIDTH 8 0
BBX 8 14 0 0
BITMAP
3C
3C
66
66
3C
3C
66
66
7E
7E
C3
C3
C3
C3
ENDCHAR
STARTCHAR U+00C6
ENCODING 198
SWIDTH 1000 0
DWIDTH 8 0
BBX 8 14 0 0
BITMAP
1F
1F
3C
3C
3C
3C
6F
6F
7C
7C
CC
CC
CF
CF
ENDCHAR
STARTCHAR U+00C7
ENCODING 199
SWIDTH 1000 0
DWIDTH 8 0
BBX 7 16 0 -2
BITMAP
3C
3C
66
66
C0
C0
C0
C0
66
66
3C
3C
08
08
30
30
ENDCHAR
STARTCHAR U+00C8
ENCODING 200
SWIDTH 1000 0
DWIDTH 8 0
BBX 7 14 0 0
BITMAP
60
60
10
10
FE
FE
60
60
78
78
60
60
FE
FE
ENDCHAR
STARTCHAR U+00C9
ENCODING 201
SWIDTH 1000 0
DWIDTH 8 0
BBX 7 14 0 0
BITMAP
18
18
20
20
FE
FE
60
60
78
78
60
60
FE
FE
ENDCHAR
STARTCHAR U+00CA
ENCODING 202
SWIDTH 1000 0
DWIDTH 8 0
BBX 7 14 0 0
BITMAP
30
30
48
48
FE
FE
60
60
78
78
60
60
FE
FE
ENDCHAR
STARTCHAR U+00CB
ENCODING 203
SWIDTH 1000 0
DWIDTH 8 0
BBX 7 14 0 0
BITMAP
66
66
00
00
FE
FE
60
60
78
78
60
60
FE
FE
ENDCHAR
STARTCHAR U+00CC
ENCODING 204
SWIDTH 1000 0
DWIDTH 8 0
BBX 6 14 1 0
BITMAP
60
60
10
10
FC
FC
30
30
30
30
30
30
FC
FC
ENDCHAR
STARTCHAR U+00CD
ENCODING 205
SWIDTH 1000 0
DWIDTH 8 0
BBX 6 14 1 0
BITMAP
18
18
20
20
FC
FC
30
30
30
30
30
30
FC
FC
ENDCHAR
STARTCHAR U+00CE
ENCODING 206
SWIDTH 1000 0
DWIDTH 8 0
BBX 6 14 1 0
BITMAP
30
30
48
48
FC
FC
30
30
30
30
30
30
FC
FC
ENDCHAR
STARTCHAR U+00CF
ENCODING 207
SWIDTH 1000 0
DWIDTH 8 0
BBX 6 14 1 0
BITMAP
CC
CC
00
00
FC
FC
30
30
30
30
30
30
FC
FC
ENDCHAR
STARTCHAR U+00D0
ENCODING 208
SWIDTH 1000 0
DWIDTH 8 0
BBX 7 14 0 0
BITMAP
F8
F8
6C
6C
66
66
F6
F6
66
66
6C
6C
F8
F8
ENDCHAR
STARTCHAR U+00D1
ENCODING 209
SWIDTH 1000 0
DWIDTH 8 0
BBX 8 14 0 0
BITMAP
71
71
8E
8E
C6
C6
E6
E6
D6
D6
CE
CE
C6
C6
ENDCHAR
STARTCHAR U+00D2
ENCODING 210
SWIDTH 1000 0
DWIDTH 8 0
BBX 8 14 0 0
BITMAP
30
30
08
08
3C
3C
66
66
C3
C3
66
66
3C
3C
ENDCHAR
STARTCHAR U+00D3
ENCODING 211
SWIDTH 1000 0
DWIDTH 8 0
BBX 8 14 0 0
BITMAP
0C
0C
10
10
3C
3C
66
66
C3
C3
66
66
3C
3C
ENDCHAR
STARTCHAR U+00D4
ENCODING 212
SWIDTH 1000 0
DWIDTH 8 0
BBX 8 14 0 0
BITMAP
18
18
24
24
3C
3C
66
66
C3
C3
66
66
3C
3C
ENDCHAR
STARTCHAR U+00D5
ENCODING 213
SWIDTH 1000 0
DWIDTH 8 0
BBX 8 14 0 0
BITMAP
71
71
8E
8E
3C
3C
66
66
C3
C3
66
66
3C
3C
ENDCHAR
STARTCHAR U+00D6
ENCODING 214
SWIDTH 1000 0
DWIDTH 8 0
BBX 8 14 0 0
BITMAP
C3
C3
3C
3C
66
66
C3
C3
C3
C3
66
66
3C
3C
ENDCHAR
STARTCHAR U+00D7
ENCODING 215
SWIDTH 1000 0
DWIDTH 8 0
BBX 7 10 1 2
BITMAP
C6
C6
6C
6C
38
38
6C
6C
C6
C6
ENDCHAR
STARTCHAR U+00D8
ENCODING 216
SWIDTH 1000 0
DWIDTH 8 0
BBX 8 14 0 0
BITMAP
3D
3D
66
66
CF
CF
DB
DB
F3
F3
66
66
BC
BC
ENDCHAR
STARTCHAR U+00D9
ENCODING 217
SWIDTH 1000 0
DWIDTH 8 0
BBX 6 14 1 0
BITMAP
60
60
10
10
CC
CC
CC
CC
CC
CC
CC
CC
7C
7C
ENDCHAR
STARTCHAR U+00DA
ENCODING 218
SWIDTH 1000 0
DWIDTH 8 0
BBX 6 14 1 0
BITMAP
18
18
20
20
CC
CC
CC
CC
CC
CC
CC
CC
7C
7C
ENDCHAR
STARTCHAR U+00DB
ENCODING 219
SWIDTH 1000 0
DWIDTH 8 0
BBX 6 14 1 0
BITMAP
30
30
48
48
CC
CC
CC
CC
CC
CC
CC
CC
7C
7C
ENDCHAR
STARTCHAR U+00DC
ENCODING 220
SWIDTH 1000 0
DWIDTH 8 0
BBX 6 14 1 0
BITMAP
CC
CC
00
00
CC
CC
CC
CC
CC
CC
CC
CC
7C
7C
ENDCHAR
STARTCHAR U+00DD
ENCODING 221
SWIDTH 1000 0
DWIDTH 8 0
BBX 8 14 0 0
BITMAP
06
06
08
08
C3
C3
66
66
3C
3C
18
18
3C
3C
ENDCHAR
STARTCHAR U+00DE
ENCODING 222
SWIDTH 1000 0
DWIDTH 8 0
BBX 8 16 0 -2
BITMAP
F0
F0
60
60
7E
7E
63
63
63
63
7E
7E
60
60
F0
F0
ENDCHAR
STARTCHAR U+00DF
ENCODING 223
SWIDTH 1000 0
DWIDTH 8 0
BBX 7 14 1 0
BITMAP
78
78
CC
CC
CC
CC
D8
D8
C6
C6
C6
C6
DC
DC
ENDCHAR
STARTCHAR U+00E0
ENCODING 224
SWIDTH 1000 0
DWIDTH 8 0
BBX 7 14 1 0
BITMAP
60
60
10
10
78
78
0C
0C
3C
3C
CC
CC
76
76
ENDCHAR
STARTCHAR U+00E1
ENCODING 225
SWIDTH 1000 0
DWIDTH 8 0
BBX 7 14 1 0
BITMAP
18
18
20
20
78
78
0C
0C
3C
3C
CC
CC
76
76
ENDCHAR
STARTCHAR U+00E2
ENCODING 226
SWIDTH 1000 0
DWIDTH 8 0
BBX 7 14 1 0
BITMAP
30
30
48
48
78
78
0C
0C
3C
3C
CC
CC
76
76
ENDCHAR
STARTCHAR U+00E3
ENCODING 227
SWIDTH 1000 0
DWIDTH 8 0
BBX 8 14 0 0
BITMAP
71
71
8E
8E
3C
3C
06
06
1E
1E
66
66
3B
3B
ENDCHAR
STARTCHAR U+00E4
ENCODING 228
SWIDTH 1000 0
DWIDTH 8 0
BBX 7 14 1 0
BITMAP
66
66
00
00
78
78
0C
0C
3C
3C
CC
CC
76
76
ENDCHAR
STARTCHAR U+00E5
ENCODING 229
SWIDTH 1000 0
DWIDTH 8 0
BBX 7 14 1 0
BITMAP
78
78
CC
CC
78
78
0C
0C
3C
3C
CC
CC
76
76
ENDCHAR
STARTCHAR U+00E6
ENCODING 230
SWIDTH 1000 0
DWIDTH 8 0
BBX 8 10 0 0
BITMAP
7E
7E
1B
1B
7F
7F
D8
D8
77
77
ENDCHAR
STARTCHAR U+00E7
ENCODING 231
SWIDTH 1000 0
DWIDTH 8 0
BBX 6 12 1 -2
BITMAP
78
78
CC
CC
C0
C0
CC
CC
78
78
20
20
ENDCHAR
STARTCHAR U+00E8
ENCODING 232
SWIDTH 1000 0
DWIDTH 8 0
BBX 6 14 1 0
BITMAP
60
60
10
10
78
78
CC
CC
FC
FC
C0
C0
78
78
ENDCHAR
STARTCHAR U+00E9
ENCODING 233
SWIDTH 1000 0
DWIDTH 8 0
BBX 6 14 1 0
BITMAP
18
18
20
20
78
78
CC
CC
FC
FC
C0
C0
78
78
ENDCHAR
STARTCHAR U+00EA
ENCODING 234
SWIDTH 1000 0
DWIDTH 8 0
BBX 6 14 1 0
BITMAP
30
30
48
48
78
78
CC
CC
FC
FC
C0
C0
78
78
ENDCHAR
STARTCHAR U+00EB
ENCODING 235
SWIDTH 1000 0
DWIDTH 8 0
BBX 6 14 1 0
BITMAP
CC
CC
00
00
78
78
CC
CC
FC
FC
C0
C0
78
78
ENDCHAR
STARTCHAR U+00EC
ENCODING 236
SWIDTH 1000 0
DWIDTH 8 0
BBX 4 14 2 0
BITMAP
C0
C0
20
20
E0
E0
60
60
60
60
60
60
F0
F0
ENDCHAR
STARTCHAR U+00ED
ENCODING 237
SWIDTH 1000 0
DWIDTH 8 0
BBX 4 14 2 0
BITMAP
30
30
40
40
E0
E0
60
60
60
60
60
60
F0
F0
ENDCHAR
STARTCHAR U+00EE
ENCODING 238
SWIDTH 1000 0
DWIDTH 8 0
BBX 4 14 2 0
BITMAP
60
60
90
90
E0
E0
60
60
60
60
60
60
F0
F0
ENDCHAR
STARTCHAR U+00EF
ENCODING 239
SWIDTH 1000 0
DWIDTH 8 0
BBX 6 14 1 0
BITMAP
CC
CC
00
00
70
70
30
30
30
30
30
30
78
78
ENDCHAR
STARTCHAR U+00F0
ENCODING 240
SWIDTH 1000 0
DWIDTH 8 0
BBX 7 14 0 0
BITMAP
60
60
FC
FC
18
18
7C
7C
C6
C6
C6
C6
7C
7C
ENDCHAR
STARTCHAR U+00F1
ENCODING 241
SWIDTH 1000 0
DWIDTH 8 0
BBX 8 14 0 0
BITMAP
71
71
8E
8E
7C
7C
66
66
66
66
66
66
66
66
ENDCHAR
STARTCHAR U+00F2
ENCODING 242
SWIDTH 1000 0
DWIDTH 8 0
BBX 6 14 1 0
BITMAP
60
60
10
10
78
78
CC
CC
CC
CC
CC
CC
78
78
ENDCHAR
STARTCHAR U+00F3
ENCODING 243
SWIDTH 1000 0
DWIDTH 8 0
BBX 6 14 1 0
BITMAP
18
18
20
20
78
78
CC
CC
CC
CC
CC
CC
78
78
ENDCHAR
STARTCHAR U+00F4
ENCODING 244
SWIDTH 1000 0
DWIDTH 8 0
BBX 6 14 1 0
BITMAP
30
30
48
48
78
78
CC
CC
CC
CC
CC
CC
78
78
ENDCHAR
STARTCHAR U+00F5
ENCODING 245
SWIDTH 1000 0
DWIDTH 8 0
BBX 8 14 0 0
BITMAP
71
71
8E
8E
3C
3C
66
66
66
66
66
66
3C
3C
ENDCHAR
STARTCHAR U+00F6
ENCODING 246
SWIDTH 1000 0
DWIDTH 8 0
BBX 6 14 1 0
BITMAP
CC
CC
00
00
78
78
CC
CC
CC
CC
CC
CC
78
78
ENDCHAR
STARTCHAR U+00F7
ENCODING 247
SWIDTH 1000 0
DWIDTH 8 0
BBX 6 10 1 2
BITMAP
30
30
00
00
FC
FC
00
00
30
30
ENDCHAR
STARTCHAR U+00F8
ENCODING 248
SWIDTH 1000 0
DWIDTH 8 0
BBX 7 14 1 -2
BITMAP
02
02
7C
7C
CE
CE
D6
D6
E6
E6
7C
7C
80
80
ENDCHAR
STARTCHAR U+00F9
ENCODING 249
SWIDTH 1000 0
DWIDTH 8 0
BBX 7 14 1 0
BITMAP
60
60
10
10
CC
CC
CC
CC
CC
CC
CC
CC
76
76
ENDCHAR
STARTCHAR U+00FA
ENCODING 250
SWIDTH 1000 0
DWIDTH 8 0
BBX 7 14 1 0
BITMAP
18
18
20
20
CC
CC
CC
CC
CC
CC
CC
CC
76
76
ENDCHAR
STARTCHAR U+00FB
ENCODING 251
SWIDTH 1000 0
DWIDTH 8 0
BBX 7 14 1 0
BITMAP
30
30
48
48
CC
CC
CC
CC
CC
CC
CC
CC
76
76
ENDCHAR
STARTCHAR U+00FC
ENCODING 252
SWIDTH 1000 0
DWIDTH 8 0
BBX 7 14 1 0
BITMAP
CC
CC
00
00
CC
CC
CC
CC
CC
CC
CC
CC
76
76
ENDCHAR
STARTCHAR U+00FD
ENCODING 253
SWIDTH 1000 0
DWIDTH 8 0
BBX 6 16 1 -2
BITMAP
18
18
20
20
CC
CC
CC
CC
CC
CC
78
78
30
30
E0
E0
ENDCHAR
STARTCHAR U+00FE
ENCODING 254
SWIDTH 1000 0
DWIDTH 8 0
BBX 7 16 0 -2
BITMAP
F0
F0
60
60
7C
7C
66
66
66
66
7C
7C
60
60
F0
F0
ENDCHAR
STARTCHAR U+00FF
ENCODING 255
SWIDTH 1000 0
DWIDTH 8 0
BBX 6 16 1 -2
BITMAP
CC
CC
00
00
CC
CC
CC
CC
CC
CC
78
78
30
30
E0
E0
ENDCHAR
STARTCHAR U+0100
ENCODING 256
SWIDTH 1000 0
DWIDTH 8 0
BBX 8 14 0 0
BITMAP
7E
7E
00
00
3C
3C
66
66
7E
7E
C3
C3
C3
C3
ENDCHAR
STARTCHAR U+0101
ENCODING 257
SWIDTH 1000 0
DWIDTH 8 0
BBX 7 14 1 0
BITMAP
FC
FC
00
00
78
78
0C
0C
3C
3C
CC
CC
76
76
ENDCHAR
STARTCHAR U+0102
ENCODING 258
SWIDTH 1000 0
DWIDTH 8 0
BBX 8 14 0 0
BITMAP
81
81
7E
7E
3C
3C
66
66
7E
7E
C3
C3
C3
C3
ENDCHAR
STARTCHAR U+0103
ENCODING 259
SWIDTH 1000 0
DWIDTH 8 0
BBX 8 14 0 0
BITMAP
C3
C3
7E
7E
3C
3C
06
06
1E
1E
66
66
3B
3B
ENDCHAR
STARTCHAR U+0104
ENCODING 260
SWIDTH 1000 0
DWIDTH 8 0
BBX 8 16 0 -2
BITMAP
18
18
3C
3C
66
66
7E
7E
C3
C3
C3
C3
04
04
06
06
ENDCHAR
STARTCHAR U+0105
ENCODING 261
SWIDTH 1000 0
DWIDTH 8 0
BBX 7 12 1 -2
BITMAP
78
78
0C
0C
3C
3C
CC
CC
74
74
06
06
ENDCHAR
STARTCHAR U+0106
ENCODING 262
SWIDTH 1000 0
DWIDTH 8 0
BBX 7 14 0 0
BITMAP
0C
0C
10
10
3C
3C
66
66
C0
C0
66
66
3C
3C
ENDCHAR
STARTCHAR U+0107
ENCODING 263
SWIDTH 1000 0
DWIDTH 8 0
BBX 6 14 1 0
BITMAP
18
18
20
20
78
78
CC
CC
C0
C0
CC
CC
78
78
ENDCHAR
STARTCHAR U+0108
ENCODING 264
SWIDTH 1000 0
DWIDTH 8 0
BBX 7 14 0 0
BITMAP
18
18
24
24
3C
3C
66
66
C0
C0
66
66
3C
3C
ENDCHAR
STARTCHAR U+0109
ENCODING 265
SWIDTH 1000 0
DWIDTH 8 0
BBX 6 14 1 0
BITMAP
30
30
48
48
78
78
CC
CC
C0
C0
CC
CC
78
78
ENDCHAR
STARTCHAR U+010A
ENCODING 266
SWIDTH 1000 0
DWIDTH 8 0
BBX 7 14 0 0
BITMAP
18
18
00
00
3C
3C
66
66
C0
C0
66
66
3C
3C
ENDCHAR
STARTCHAR U+010B
ENCODING 267
SWIDTH 1000 0
DWIDTH 8 0
BBX 6 14 1 0
BITMAP
30
30
00
00
78
78
CC
CC
C0
C0
CC
CC
78
78
ENDCHAR
STARTCHAR U+010C
ENCODING 268
SWIDTH 1000 0
DWIDTH 8 0
BBX 7 14 0 0
BITMAP
24
24
18
18
3C
3C
66
66
C0
C0
66
66
3C
3C
ENDCHAR
STARTCHAR U+010D
ENCODING 269
SWIDTH 1000 0
DWIDTH 8 0
BBX 6 14 1 0
BITMAP
48
48
30
30
78
78
CC
CC
C0
C0
CC
CC
78
78
ENDCHAR
STARTCHAR U+010E
ENCODING 270
SWIDTH 1000 0
DWIDTH 8 0
BBX 7 14 0 0
BITMAP
24
24
18
18
F8
F8
6C
6C
66
66
6C
6C
F8
F8
ENDCHAR
STARTCHAR U+010F
ENCODING 271
SWIDTH 1000 0
DWIDTH 8 0
BBX 8 14 0 0
BITMAP
1D
1D
0D
0D
6C
6C
DC
DC
CC
CC
CC
CC
76
76
ENDCHAR
STARTCHAR U+0110
ENCODING 272
SWIDTH 1000 0
DWIDTH 8 0
BBX 7 14 0 0
BITMAP
F8
F8
6C
6C
66
66
F6
F6
66
66
6C
6C
F8
F8
ENDCHAR
STARTCHAR U+0111
ENCODING 273
SWIDTH 1000 0
DWIDTH 8 0
BBX 7 14 1 0
BITMAP
0C
0C
3E
3E
0C
0C
7C
7C
CC
CC
CC
CC
76
76
ENDCHAR
STARTCHAR U+0112
ENCODING 274
SWIDTH 1000 0
DWIDTH 8 0
BBX 7 14 0 0
BITMAP
7E
7E
00
00
FE
FE
60
60
78
78
60
60
FE
FE
ENDCHAR
STARTCHAR U+0113
ENCODING 275
SWIDTH 1000 0
DWIDTH 8 0
BBX 6 14 1 0
BITMAP
FC
FC
00
00
78
78
CC
CC
FC
FC
C0
C0
78
78
ENDCHAR
STARTCHAR U+0114
ENCODING 276
SWIDTH 1000 0
DWIDTH 8 0
BBX 8 14 0 0
BITMAP
C3
C3
7E
7E
FE
FE
60
60
78
78
60
60
FE
FE
ENDCHAR
STARTCHAR U+0115
ENCODING 277
SWIDTH 1000 0
DWIDTH 8 0
BBX 8 14 0 0
BITMAP
C3
C3
7E
7E
3C
3C
66
66
7E
7E
60
60
3C
3C
ENDCHAR
STARTCHAR U+0116
ENCODING 278
SWIDTH 1000 0
DWIDTH 8 0
BBX 7 14 0 0
BITMAP
18
18
00
00
FE
FE
60
60
78
78
60
60
FE
FE
ENDCHAR
STARTCHAR U+0117
ENCODING 279
SWIDTH 1000 0
DWIDTH 8 0
BBX 6 14 1 0
BITMAP
30
30
00
00
78
78
CC
CC
FC
FC
C0
C0
78
78
ENDCHAR
STARTCHAR U+0118
ENCODING 280
SWIDTH 1000 0
DWIDTH 8 0
BBX 7 16 0 -2
BITMAP
FE
FE
60
60
78
78
60
60
66
66
FE
FE
04
04
06
06
ENDCHAR
STARTCHAR U+0119
ENCODING 281
SWIDTH 1000 0
DWIDTH 8 0
BBX 6 12 1 -2
BITMAP
78
78
CC
CC
FC
FC
C0
C0
78
78
10
10
ENDCHAR
STARTCHAR U+011A
ENCODING 282
SWIDTH 1000 0
DWIDTH 8 0
BBX 7 14 0 0
BITMAP
24
24
18
18
FE
FE
60
60
78
78
60
60
FE
FE
ENDCHAR
STARTCHAR U+011B
ENCODING 283
SWIDTH 1000 0
DWIDTH 8 0
BBX 6 14 1 0
BITMAP
48
48
30
30
78
78
CC
CC
FC
FC
C0
C0
78
78
ENDCHAR
STARTCHAR U+011C
ENCODING 284
SWIDTH 1000 0
DWIDTH 8 0
BBX 7 14 0 0
BITMAP
18
18
24
24
3C
3C
60
60
CE
CE
66
66
3E
3E
ENDCHAR
STARTCHAR U+011D
ENCODING 285
SWIDTH 1000 0
DWIDTH 8 0
BBX 8 16 0 -2
BITMAP
18
18
24
24
3B
3B
66
66
66
66
3C
3C
C6
C6
7C
7C
ENDCHAR
STARTCHAR U+011E
ENCODING 286
SWIDTH 1000 0
DWIDTH 8 0
BBX 8 14 0 0
BITMAP
C3
C3
7E
7E
3C
3C
60
60
CE
CE
66
66
3E
3E
ENDCHAR
STARTCHAR U+011F
ENCODING 287
SWIDTH 1000 0
DWIDTH 8 0
BBX 8 16 0 -2
BITMAP
C3
C3
7E
7E
3B
3B
66
66
66
66
3C
3C
C6
C6
7C
7C
ENDCHAR
STARTCHAR U+0120
ENCODING 288
SWIDTH 1000 0
DWIDTH 8 0
BBX 7 14 0 0
BITMAP
18
18
00
00
3C
3C
60
60
CE
CE
66
66
3E
3E
ENDCHAR
STARTCHAR U+0121
ENCODING 289
SWIDTH 1000 0
DWIDTH 8 0
BBX 8 16 0 -2
BITMAP
18
18
00
00
3B
3B
66
66
66
66
3C
3C
C6
C6
7C
7C
ENDCHAR
STARTCHAR U+0122
ENCODING 290
SWIDTH 1000 0
DWIDTH 8 0
BBX 7 16 0 -2
BITMAP
3C
3C
66
66
C0
C0
CE
CE
66
66
3C
3C
08
08
30
30
ENDCHAR
STARTCHAR U+0123
ENCODING 291
SWIDTH 1000 0
DWIDTH 8 0
BBX 8 16 0 -2
BITMAP
0C
0C
10
10
3B
3B
66
66
66
66
3C
3C
C6
C6
7C
7C
ENDCHAR
STARTCHAR U+0124
ENCODING 292
SWIDTH 1000 0
DWIDTH 8 0
BBX 6 14 1 0
BITMAP
30
30
48
48
00
00
CC
CC
FC
FC
CC
CC
CC
CC
ENDCHAR
STARTCHAR U+0125
ENCODING 293
SWIDTH 1000 0
DWIDTH 8 0
BBX 8 14 0 0
BITMAP
06
06
E9
E9
60
60
7C
7C
66
66
66
66
E6
E6
ENDCHAR
STARTCHAR U+0126
ENCODING 294
SWIDTH 1000 0
DWIDTH 8 0
BBX 8 14 0 0
BITMAP
66
66
FF
FF
66
66
7E
7E
66
66
66
66
66
66
ENDCHAR
STARTCHAR U+0127
ENCODING 295
SWIDTH 1000 0
DWIDTH 8 0
BBX 7 14 0 0
BITMAP
60
60
F8
F8
60
60
7C
7C
66
66
66
66
E6
E6
ENDCHAR
STARTCHAR U+0128
ENCODING 296
SWIDTH 1000 0
DWIDTH 8 0
BBX 8 14 0 0
BITMAP
71
71
8E
8E
7E
7E
18
18
18
18
18
18
7E
7E
ENDCHAR
STARTCHAR U+0129
ENCODING 297
SWIDTH 1000 0
DWIDTH 8 0
BBX 8 14 0 0
BITMAP
71
71
8E
8E
38
38
18
18
18
18
18
18
3C
3C
ENDCHAR
STARTCHAR U+012A
ENCODING 298
SWIDTH 1000 0
DWIDTH 8 0
BBX 6 14 1 0
BITMAP
FC
FC
00
00
FC
FC
30
30
30
30
30
30
FC
FC
ENDCHAR
STARTCHAR U+012B
ENCODING 299
SWIDTH 1000 0
DWIDTH 8 0
BBX 6 14 1 0
BITMAP
FC
FC
00
00
70
70
30
30
30
30
30
30
78
78
ENDCHAR
STARTCHAR U+012C
ENCODING 300
SWIDTH 1000 0
DWIDTH 8 0
BBX 8 14 0 0
BITMAP
C3
C3
7E
7E
7E
7E
18
18
18
18
18
18
7E
7E
ENDCHAR
STARTCHAR U+012D
ENCODING 301
SWIDTH 1000 0
DWIDTH 8 0
BBX 8 14 0 0
BITMAP
C3
C3
7E
7E
38
38
18
18
18
18
18
18
3C
3C
ENDCHAR
STARTCHAR U+012E
ENCODING 302
SWIDTH 1000 0
DWIDTH 8 0
BBX 6 16 1 -2
BITMAP
FC
FC
30
30
30
30
30
30
30
30
FC
FC
40
40
60
60
ENDCHAR
STARTCHAR U+012F
ENCODING 303
SWIDTH 1000 0
DWIDTH 8 0
BBX 4 16 2 -2
BITMAP
60
60
00
00
E0
E0
60
60
60
60
60
60
F0
F0
40
40
ENDCHAR
STARTCHAR U+0130
ENCODING 304
SWIDTH 1000 0
DWIDTH 8 0
BBX 6 14 1 0
BITMAP
30
30
00
00
FC
FC
30
30
30
30
30
30
FC
FC
ENDCHAR
STARTCHAR U+0131
ENCODING 305
SWIDTH 1000 0
DWIDTH 8 0
BBX 4 10 2 0
BITMAP
E0
E0
60
60
60
60
60
60
F0
F0
ENDCHAR
STARTCHAR U+0132
ENCODING 306
SWIDTH 1000 0
DWIDTH 8 0
BBX 8 14 0 0
BITMAP
FF
FF
66
66
66
66
66
66
F6
F6
06
06
3C
3C
ENDCHAR
STARTCHAR U+0133
ENCODING 307
SWIDTH 1000 0
DWIDTH 8 0
BBX 7 16 0 -2
BITMAP
66
66
00
00
E6
66
66
66
66
66
F6
06
66
66
3C
3C
ENDCHAR
STARTCHAR U+0134
ENCODING 308
SWIDTH 1000 0
DWIDTH 8 0
BBX 7 14 1 0
BITMAP
0C
0C
12
12
0C
0C
0C
0C
CC
CC
CC
CC
78
78
ENDCHAR
STARTCHAR U+0135
ENCODING 309
SWIDTH 1000 0
DWIDTH 8 0
BBX 7 16 1 -2
BITMAP
0C
0C
12
12
0C
0C
0C
0C
0C
0C
0C
0C
CC
CC
78
78
ENDCHAR
STARTCHAR U+0136
ENCODING 310
SWIDTH 1000 0
DWIDTH 8 0
BBX 7 16 0 -2
BITMAP
E6
E6
6C
6C
78
78
6C
6C
66
66
E6
E6
02
02
0C
0C
ENDCHAR
STARTCHAR U+0137
ENCODING 311
SWIDTH 1000 0
DWIDTH 8 0
BBX 7 16 0 -2
BITMAP
E0
E0
60
60
66
66
6C
6C
78
78
6C
6C
E6
E6
04
04
ENDCHAR
STARTCHAR U+0138
ENCODING 312
SWIDTH 1000 0
DWIDTH 8 0
BBX 7 10 0 0
BITMAP
E6
E6
6C
6C
78
78
6C
6C
E6
E6
ENDCHAR
STARTCHAR U+0139
ENCODING 313
SWIDTH 1000 0
DWIDTH 8 0
BBX 7 14 0 0
BITMAP
18
18
20
20
F0
F0
60
60
62
62
66
66
FE
FE
ENDCHAR
STARTCHAR U+013A
ENCODING 314
SWIDTH 1000 0
DWIDTH 8 0
BBX 4 14 2 0
BITMAP
30
30
40
40
E0
E0
60
60
60
60
60
60
F0
F0
ENDCHAR
STARTCHAR U+013B
ENCODING 315
SWIDTH 1000 0
DWIDTH 8 0
BBX 7 16 0 -2
BITMAP
F0
F0
60
60
60
60
62
62
66
66
FE
FE
04
04
18
18
ENDCHAR
STARTCHAR U+013C
ENCODING 316
SWIDTH 1000 0
DWIDTH 8 0
BBX 4 16 2 -2
BITMAP
E0
E0
60
60
60
60
60
60
60
60
60
60
F0
F0
20
20
ENDCHAR
STARTCHAR U+013D
ENCODING 317
SWIDTH 1000 0
DWIDTH 8 0
BBX 7 14 0 0
BITMAP
F6
F6
64
64
60
60
60
60
62
62
66
66
FE
FE
ENDCHAR
STARTCHAR U+013E
ENCODING 318
SWIDTH 1000 0
DWIDTH 8 0
BBX 6 14 2 0
BITMAP
EC
EC
68
68
60
60
60
60
60
60
60
60
F0
F0
ENDCHAR
STARTCHAR U+013F
ENCODING 319
SWIDTH 1000 0
DWIDTH 8 0
BBX 7 14 0 0
BITMAP
F0
F0
60
60
66
66
60
60
62
62
66
66
FE
FE
ENDCHAR
STARTCHAR U+0140
ENCODING 320
SWIDTH 1000 0
DWIDTH 8 0
BBX 6 14 2 0
BITMAP
E0
E0
60
60
60
60
6C
6C
60
60
60
60
F0
F0
ENDCHAR
STARTCHAR U+0141
ENCODING 321
SWIDTH 1000 0
DWIDTH 8 0
BBX 7 14 0 0
BITMAP
F0
F0
60
60
6C
6C
70
70
E2
E2
66
66
FE
FE
ENDCHAR
STARTCHAR U+0142
ENCODING 322
SWIDTH 1000 0
DWIDTH 8 0
BBX 6 14 1 0
BITMAP
70
70
30
30
3C
3C
30
30
F0
F0
30
30
78
78
ENDCHAR
STARTCHAR U+0143
ENCODING 323
SWIDTH 1000 0
DWIDTH 8 0
BBX 7 14 0 0
BITMAP
0C
0C
10
10
C6
C6
E6
E6
F6
F6
DE
DE
CE
CE
ENDCHAR
STARTCHAR U+0144
ENCODING 324
SWIDTH 1000 0
DWIDTH 8 0
BBX 6 14 1 0
BITMAP
18
18
20
20
F8
F8
CC
CC
CC
CC
CC
CC
CC
CC
ENDCHAR
STARTCHAR U+0145
ENCODING 325
SWIDTH 1000 0
DWIDTH 8 0
BBX 7 16 0 -2
BITMAP
C6
C6
E6
E6
F6
F6
DE
DE
CE
CE
C6
C6
02
02
0C
0C
ENDCHAR
STARTCHAR U+0146
ENCODING 326
SWIDTH 1000 0
DWIDTH 8 0
BBX 6 12 1 -2
BITMAP
F8
F8
CC
CC
CC
CC
CC
CC
CC
CC
08
08
ENDCHAR
STARTCHAR U+0147
ENCODING 327
SWIDTH 1000 0
DWIDTH 8 0
BBX 7 14 0 0
BITMAP
24
24
18
18
C6
C6
E6
E6
F6
F6
DE
DE
CE
CE
ENDCHAR
STARTCHAR U+0148
ENCODING 328
SWIDTH 1000 0
DWIDTH 8 0
BBX 6 14 1 0
BITMAP
48
48
30
30
F8
F8
CC
CC
CC
CC
CC
CC
CC
CC
ENDCHAR
STARTCHAR U+0149
ENCODING 329
SWIDTH 1000 0
DWIDTH 8 0
BBX 7 14 0 0
BITMAP
60
60
C0
C0
7C
7C
66
66
66
66
66
66
66
66
ENDCHAR
STARTCHAR U+014A
ENCODING 330
SWIDTH 1000 0
DWIDTH 8 0
BBX 7 16 0 -2
BITMAP
C6
C6
E6
E6
F6
F6
DE
DE
CE
CE
C6
C6
C6
C6
1C
1C
ENDCHAR
STARTCHAR U+014B
ENCODING 331
SWIDTH 1000 0
DWIDTH 8 0
BBX 6 12 1 -2
BITMAP
F8
F8
CC
CC
CC
CC
CC
CC
CC
CC
18
18
ENDCHAR
STARTCHAR U+014C
ENCODING 332
SWIDTH 1000 0
DWIDTH 8 0
BBX 8 14 0 0
BITMAP
7E
7E
00
00
3C
3C
66
66
C3
C3
66
66
3C
3C
ENDCHAR
STARTCHAR U+014D
ENCODING 333
SWIDTH 1000 0
DWIDTH 8 0
BBX 6 14 1 0
BITMAP
FC
FC
00
00
78
78
CC
CC
CC
CC
CC
CC
78
78
ENDCHAR
STARTCHAR U+014E
ENCODING 334
SWIDTH 1000 0
DWIDTH 8 0
BBX 8 14 0 0
BITMAP
C3
C3
7E
7E
3C
3C
66
66
C3
C3
66
66
3C
3C
ENDCHAR
STARTCHAR U+014F
ENCODING 335
SWIDTH 1000 0
DWIDTH 8 0
BBX 8 14 0 0
BITMAP
C3
C3
7E
7E
3C
3C
66
66
66
66
66
66
3C
3C
ENDCHAR
STARTCHAR U+0150
ENCODING 336
SWIDTH 1000 0
DWIDTH 8 0
BBX 8 14 0 0
BITMAP
36
36
48
48
3C
3C
66
66
C3
C3
66
66
3C
3C
ENDCHAR
STARTCHAR U+0151
ENCODING 337
SWIDTH 1000 0
DWIDTH 8 0
BBX 6 14 1 0
BITMAP
6C
6C
90
90
78
78
CC
CC
CC
CC
CC
CC
78
78
ENDCHAR
STARTCHAR U+0152
ENCODING 338
SWIDTH 1000 0
DWIDTH 8 0
BBX 8 14 0 0
BITMAP
3F
3F
6C
6C
CC
CC
CF
CF
CC
CC
6C
6C
3F
3F
ENDCHAR
STARTCHAR U+0153
ENCODING 339
SWIDTH 1000 0
DWIDTH 8 0
BBX 8 10 0 0
BITMAP
7E
7E
DB
DB
DF
DF
D8
D8
77
77
ENDCHAR
STARTCHAR U+0154
ENCODING 340
SWIDTH 1000 0
DWIDTH 8 0
BBX 8 14 0 0
BITMAP
18
18
20
20
FC
FC
66
66
7C
7C
66
66
E3
E3
ENDCHAR
STARTCHAR U+0155
ENCODING 341
SWIDTH 1000 0
DWIDTH 8 0
BBX 7 14 0 0
BITMAP
0C
0C
10
10
EC
EC
76
76
66
66
60
60
F0
F0
ENDCHAR
STARTCHAR U+0156
ENCODING 342
SWIDTH 1000 0
DWIDTH 8 0
BBX 8 16 0 -2
BITMAP
FC
FC
66
66
66
66
7C
7C
66
66
E3
E3
02
02
0C
0C
ENDCHAR
STARTCHAR U+0157
ENCODING 343
SWIDTH 1000 0
DWIDTH 8 0
BBX 7 12 0 -2
BITMAP
EC
EC
76
76
66
66
60
60
F0
F0
40
40
ENDCHAR
STARTCHAR U+0158
ENCODING 344
SWIDTH 1000 0
DWIDTH 8 0
BBX 8 14 0 0
BITMAP
24
24
18
18
FC
FC
66
66
7C
7C
66
66
E3
E3
ENDCHAR
STARTCHAR U+0159
ENCODING 345
SWIDTH 1000 0
DWIDTH 8 0
BBX 7 14 0 0
BITMAP
24
24
18
18
EC
EC
76
76
66
66
60
60
F0
F0
ENDCHAR
STARTCHAR U+015A
ENCODING 346
SWIDTH 1000 0
DWIDTH 8 0
BBX 8 14 0 0
BITMAP
0C
0C
10
10
7E
7E
C0
C0
7E
7E
03
03
7E
7E
ENDCHAR
STARTCHAR U+015B
ENCODING 347
SWIDTH 1000 0
DWIDTH 8 0
BBX 6 14 1 0
BITMAP
18
18
20
20
7C
7C
C0
C0
78
78
0C
0C
F8
F8
ENDCHAR
STARTCHAR U+015C
ENCODING 348
SWIDTH 1000 0
DWIDTH 8 0
BBX 8 14 0 0
BITMAP
18
18
24
24
7E
7E
C0
C0
7E
7E
03
03
7E
7E
ENDCHAR
STARTCHAR U+015D
ENCODING 349
SWIDTH 1000 0
DWIDTH 8 0
BBX 6 14 1 0
BITMAP
30
30
48
48
7C
7C
C0
C0
78
78
0C
0C
F8
F8
ENDCHAR
STARTCHAR U+015E
ENCODING 350
SWIDTH 1000 0
DWIDTH 8 0
BBX 7 14 0 -2
BITMAP
7C
7C
C0
C0
7C
7C
06
06
7C
7C
08
08
30
30
ENDCHAR
STARTCHAR U+015F
ENCODING 351
SWIDTH 1000 0
DWIDTH 8 0
BBX 6 12 1 -2
BITMAP
7C
7C
C0
C0
78
78
0C
0C
F8
F8
20
20
ENDCHAR
STARTCHAR U+0160
ENCODING 352
SWIDTH 1000 0
DWIDTH 8 0
BBX 8 14 0 0
BITMAP
24
24
18
18
7E
7E
C0
C0
7E
7E
03
03
7E
7E
ENDCHAR
STARTCHAR U+0161
ENCODING 353
SWIDTH 1000 0
DWIDTH 8 0
BBX 6 14 1 0
BITMAP
48
48
30
30
7C
7C
C0
C0
78
78
0C
0C
F8
F8
ENDCHAR
STARTCHAR U+0162
ENCODING 354
SWIDTH 1000 0
DWIDTH 8 0
BBX 6 16 1 -2
BITMAP
FC
FC
B4
B4
30
30
30
30
30
30
78
78
10
10
60
60
ENDCHAR
STARTCHAR U+0163
ENCODING 355
SWIDTH 1000 0
DWIDTH 8 0
BBX 5 16 2 -2
BITMAP
20
20
60
60
F8
F8
60
60
60
60
68
68
30
30
20
20
ENDCHAR
STARTCHAR U+0164
ENCODING 356
SWIDTH 1000 0
DWIDTH 8 0
BBX 6 14 1 0
BITMAP
48
48
30
30
FC
FC
B4
B4
30
30
30
30
78
78
ENDCHAR
STARTCHAR U+0165
ENCODING 357
SWIDTH 1000 0
DWIDTH 8 0
BBX 6 14 2 0
BITMAP
2C
2C
68
68
F0
F0
60
60
60
60
68
68
30
30
ENDCHAR
STARTCHAR U+0166
ENCODING 358
SWIDTH 1000 0
DWIDTH 8 0
BBX 6 14 1 0
BITMAP
FC
FC
B4
B4
30
30
FC
FC
30
30
30
30
78
78
ENDCHAR
STARTCHAR U+0167
ENCODING 359
SWIDTH 1000 0
DWIDTH 8 0
BBX 5 14 2 0
BITMAP
20
20
60
60
F8
F8
60
60
F8
F8
60
60
38
38
ENDCHAR
STARTCHAR U+0168
ENCODING 360
SWIDTH 1000 0
DWIDTH 8 0
BBX 8 14 0 0
BITMAP
71
71
8E
8E
66
66
66
66
66
66
66
66
3E
3E
ENDCHAR
STARTCHAR U+0169
ENCODING 361
SWIDTH 1000 0
DWIDTH 8 0
BBX 8 14 0 0
BITMAP
71
71
8E
8E
66
66
66
66
66
66
66
66
3B
3B
ENDCHAR
STARTCHAR U+016A
ENCODING 362
SWIDTH 1000 0
DWIDTH 8 0
BBX 6 14 1 0
BITMAP
FC
FC
00
00
CC
CC
CC
CC
CC
CC
CC
CC
7C
7C
ENDCHAR
STARTCHAR U+016B
ENCODING 363
SWIDTH 1000 0
DWIDTH 8 0
BBX 7 14 1 0
BITMAP
FC
FC
00
00
CC
CC
CC
CC
CC
CC
CC
CC
76
76
ENDCHAR
STARTCHAR U+016C
ENCODING 364
SWIDTH 1000 0
DWIDTH 8 0
BBX 8 14 0 0
BITMAP
C3
C3
7E
7E
66
66
66
66
66
66
66
66
3E
3E
ENDCHAR
STARTCHAR U+016D
ENCODING 365
SWIDTH 1000 0
DWIDTH 8 0
BBX 8 14 0 0
BITMAP
C3
C3
7E
7E
66
66
66
66
66
66
66
66
3B
3B
ENDCHAR
STARTCHAR U+016E
ENCODING 366
SWIDTH 1000 0
DWIDTH 8 0
BBX 6 14 1 0
BITMAP
78
78
CC
CC
78
78
CC
CC
CC
CC
CC
CC
7C
7C
ENDCHAR
STARTCHAR U+016F
ENCODING 367
SWIDTH 1000 0
DWIDTH 8 0
BBX 7 14 1 0
BITMAP
78
78
CC
CC
78
78
CC
CC
CC
CC
CC
CC
76
76
ENDCHAR
STARTCHAR U+0170
ENCODING 368
SWIDTH 1000 0
DWIDTH 8 0
BBX 6 14 1 0
BITMAP
6C
6C
90
90
CC
CC
CC
CC
CC
CC
CC
CC
7C
7C
ENDCHAR
STARTCHAR U+0171
ENCODING 369
SWIDTH 1000 0
DWIDTH 8 0
BBX 7 14 1 0
BITMAP
6C
6C
90
90
CC
CC
CC
CC
CC
CC
CC
CC
76
76
ENDCHAR
STARTCHAR U+0172
ENCODING 370
SWIDTH 1000 0
DWIDTH 8 0
BBX 6 16 1 -2
BITMAP
CC
CC
CC
CC
CC
CC
CC
CC
CC
CC
7C
7C
08
08
0C
0C
ENDCHAR
STARTCHAR U+0173
ENCODING 371
SWIDTH 1000 0
DWIDTH 8 0
BBX 7 12 1 -2
BITMAP
CC
CC
CC
CC
CC
CC
CC
CC
76
76
04
04
ENDCHAR
STARTCHAR U+0174
ENCODING 372
SWIDTH 1000 0
DWIDTH 8 0
BBX 7 14 0 0
BITMAP
10
10
28
28
C6
C6
D6
D6
FE
FE
EE
EE
C6
C6
ENDCHAR
STARTCHAR U+0175
ENCODING 373
SWIDTH 1000 0
DWIDTH 8 0
BBX 7 14 1 0
BITMAP
10
10
28
28
C6
C6
D6
D6
D6
D6
6C
6C
6C
6C
ENDCHAR
STARTCHAR U+0176
ENCODING 374
SWIDTH 1000 0
DWIDTH 8 0
BBX 8 14 0 0
BITMAP
18
18
24
24
C3
C3
66
66
3C
3C
18
18
3C
3C
ENDCHAR
STARTCHAR U+0177
ENCODING 375
SWIDTH 1000 0
DWIDTH 8 0
BBX 6 16 1 -2
BITMAP
30
30
48
48
CC
CC
CC
CC
CC
CC
78
78
30
30
E0
E0
ENDCHAR
STARTCHAR U+0178
ENCODING 376
SWIDTH 1000 0
DWIDTH 8 0
BBX 8 14 0 0
BITMAP
66
66
00
00
C3
C3
66
66
3C
3C
18
18
3C
3C
ENDCHAR
STARTCHAR U+0179
ENCODING 377
SWIDTH 1000 0
DWIDTH 8 0
BBX 7 14 0 0
BITMAP
0C
0C
10
10
FE
FE
CC
CC
38
38
66
66
FE
FE
ENDCHAR
STARTCHAR U+017A
ENCODING 378
SWIDTH 1000 0
DWIDTH 8 0
BBX 6 14 1 0
BITMAP
18
18
20
20
FC
FC
98
98
30
30
64
64
FC
FC
ENDCHAR
STARTCHAR U+017B
ENCODING 379
SWIDTH 1000 0
DWIDTH 8 0
BBX 7 14 0 0
BITMAP
18
18
00
00
FE
FE
CC
CC
38
38
66
66
FE
FE
ENDCHAR
STARTCHAR U+017C
ENCODING 380
SWIDTH 1000 0
DWIDTH 8 0
BBX 6 14 1 0
BITMAP
30
30
00
00
FC
FC
98
98
30
30
64
64
FC
FC
ENDCHAR
STARTCHAR U+017D
ENCODING 381
SWIDTH 1000 0
DWIDTH 8 0
BBX 7 14 0 0
BITMAP
24
24
18
18
FE
FE
CC
CC
38
38
66
66
FE
FE
ENDCHAR
STARTCHAR U+017E
ENCODING 382
SWIDTH 1000 0
DWIDTH 8 0
BBX 6 14 1 0
BITMAP
48
48
30
30
FC
FC
98
98
30
30
64
64
FC
FC
ENDCHAR
STARTCHAR U+017F
ENCODING 383
SWIDTH 1000 0
DWIDTH 8 0
BBX 6 14 1 0
BITMAP
38
38
6C
6C
60
60
60
60
60
60
60
60
F0
F0
ENDCHAR
STARTCHAR U+0192
ENCODING 402
SWIDTH 1000 0
DWIDTH 8 0
BBX 7 16 0 -2
BITMAP
1C
1C
36
36
30
30
78
78
30
30
30
30
30
30
E0
E0
ENDCHAR
STARTCHAR U+01DD
ENCODING 477
SWIDTH 1000 0
DWIDTH 8 0
BBX 6 10 1 0
BITMAP
78
78
0C
0C
FC
FC
CC
CC
78
78
ENDCHAR
STARTCHAR U+01FA
ENCODING 506
SWIDTH 1000 0
DWIDTH 8 0
BBX 8 14 0 0
BITMAP
3B
3B
6C
6C
3C
3C
66
66
7E
7E
C3
C3
C3
C3
ENDCHAR
STARTCHAR U+01FB
ENCODING 507
SWIDTH 1000 0
DWIDTH 8 0
BBX 7 14 1 0
BITMAP
76
76
D8
D8
78
78
0C
0C
3C
3C
CC
CC
76
76
ENDCHAR
STARTCHAR U+01FC
ENCODING 508
SWIDTH 1000 0
DWIDTH 8 0
BBX 8 14 0 0
BITMAP
06
06
08
08
3F
3F
6C
6C
7F
7F
CC
CC
CF
CF
ENDCHAR
STARTCHAR U+01FD
ENCODING 509
SWIDTH 1000 0
DWIDTH 8 0
BBX 8 14 0 0
BITMAP
0C
0C
10
10
7E
7E
1B
1B
7F
7F
D8
D8
77
77
ENDCHAR
STARTCHAR U+01FE
ENCODING 510
SWIDTH 1000 0
DWIDTH 8 0
BBX 8 14 0 0
BITMAP
0C
0C
10
10
3D
3D
66
66
DB
DB
66
66
BC
BC
ENDCHAR
STARTCHAR U+01FF
ENCODING 511
SWIDTH 1000 0
DWIDTH 8 0
BBX 7 16 1 -2
BITMAP
18
18
22
22
7C
7C
CE
CE
D6
D6
E6
E6
7C
7C
80
80
ENDCHAR
STARTCHAR U+0237
ENCODING 567
SWIDTH 1000 0
DWIDTH 8 0
BBX 6 12 1 -2
BITMAP
0C
0C
0C
0C
0C
0C
0C
0C
CC
CC
78
78
ENDCHAR
STARTCHAR U+02C6
ENCODING 710
SWIDTH 1000 0
DWIDTH 8 0
BBX 4 4 2 10
BITMAP
60
60
90
90
ENDCHAR
STARTCHAR U+02C7
ENCODING 711
SWIDTH 1000 0
DWIDTH 8 0
BBX 4 4 2 10
BITMAP
90
90
60
60
ENDCHAR
STARTCHAR U+02C9
ENCODING 713
SWIDTH 1000 0
DWIDTH 8 0
BBX 6 2 1 12
BITMAP
FC
FC
ENDCHAR
STARTCHAR U+02CA
ENCODING 714
SWIDTH 1000 0
DWIDTH 8 0
BBX 3 4 3 10
BITMAP
60
60
80
80
ENDCHAR
STARTCHAR U+02CB
ENCODING 715
SWIDTH 1000 0
DWIDTH 8 0
BBX 3 4 2 10
BITMAP
C0
C0
20
20
ENDCHAR
STARTCHAR U+02D8
ENCODING 728
SWIDTH 1000 0
DWIDTH 8 0
BBX 8 4 0 10
BITMAP
C3
C3
7E
7E
ENDCHAR
STARTCHAR U+02D9
ENCODING 729
SWIDTH 1000 0
DWIDTH 8 0
BBX 2 2 3 12
BITMAP
C0
C0
ENDCHAR
STARTCHAR U+02DA
ENCODING 730
SWIDTH 1000 0
DWIDTH 8 0
BBX 6 6 1 8
BITMAP
78
78
CC
CC
78
78
ENDCHAR
STARTCHAR U+02DB
ENCODING 731
SWIDTH 1000 0
DWIDTH 8 0
BBX 2 4 3 -2
BITMAP
80
80
C0
C0
ENDCHAR
STARTCHAR U+02DC
ENCODING 732
SWIDTH 1000 0
DWIDTH 8 0
BBX 8 4 0 10
BITMAP
71
71
8E
8E
ENDCHAR
STARTCHAR U+02DD
ENCODING 733
SWIDTH 1000 0
DWIDTH 8 0
BBX 6 4 1 10
BITMAP
6C
6C
90
90
ENDCHAR
STARTCHAR U+0384
ENCODING 900
SWIDTH 1000 0
DWIDTH 8 0
BBX 2 4 3 10
BITMAP
C0
C0
80
80
ENDCHAR
STARTCHAR U+0385
ENCODING 901
SWIDTH 1000 0
DWIDTH 8 0
BBX 8 4 0 10
BITMAP
DB
DB
10
10
ENDCHAR
STARTCHAR U+0386
ENCODING 902
SWIDTH 1000 0
DWIDTH 8 0
BBX 8 14 0 0
BITMAP
D8
D8
BC
BC
3C
3C
66
66
7E
7E
C3
C3
C3
C3
ENDCHAR
STARTCHAR U+0387
ENCODING 903
SWIDTH 1000 0
DWIDTH 8 0
BBX 2 2 3 5
BITMAP
C0
C0
ENDCHAR
STARTCHAR U+0388
ENCODING 904
SWIDTH 1000 0
DWIDTH 8 0
BBX 8 14 0 0
BITMAP
C0
C0
BF
BF
30
30
3C
3C
30
30
33
33
7F
7F
ENDCHAR
STARTCHAR U+0389
ENCODING 905
SWIDTH 1000 0
DWIDTH 8 0
BBX 8 14 0 0
BITMAP
F3
F3
B3
B3
33
33
3F
3F
33
33
33
33
33
33
ENDCHAR
STARTCHAR U+038A
ENCODING 906
SWIDTH 1000 0
DWIDTH 8 0
BBX 8 14 0 0
BITMAP
DF
DF
8C
8C
0C
0C
0C
0C
0C
0C
0C
0C
3F
3F
ENDCHAR
STARTCHAR U+038C
ENCODING 908
SWIDTH 1000 0
DWIDTH 8 0
BBX 8 14 0 0
BITMAP
DC
DC
B6
B6
63
63
63
63
63
63
36
36
1C
1C
ENDCHAR
STARTCHAR U+038E
ENCODING 910
SWIDTH 1000 0
DWIDTH 8 0
BBX 8 14 0 0
BITMAP
F3
F3
B3
B3
33
33
1E
1E
0C
0C
0C
0C
1E
1E
ENDCHAR
STARTCHAR U+038F
ENCODING 911
SWIDTH 1000 0
DWIDTH 8 0
BBX 8 14 0 0
BITMAP
DC
DC
B6
B6
63
63
63
63
63
63
36
36
77
77
ENDCHAR
STARTCHAR U+0390
ENCODING 912
SWIDTH 1000 0
DWIDTH 8 0
BBX 8 14 0 0
BITMAP
DB
DB
10
10
18
18
18
18
18
18
18
18
0C
0C
ENDCHAR
STARTCHAR U+0391
ENCODING 913
SWIDTH 1000 0
DWIDTH 8 0
BBX 8 14 0 0
BITMAP
18
18
3C
3C
3C
3C
66
66
7E
7E
C3
C3
C3
C3
ENDCHAR
STARTCHAR U+0392
ENCODING 914
SWIDTH 1000 0
DWIDTH 8 0
BBX 7 14 0 0
BITMAP
FC
FC
66
66
66
66
7C
7C
66
66
66
66
FC
FC
ENDCHAR
STARTCHAR U+0393
ENCODING 915
SWIDTH 1000 0
DWIDTH 8 0
BBX 7 14 0 0
BITMAP
FE
FE
66
66
60
60
60
60
60
60
60
60
F0
F0
ENDCHAR
STARTCHAR U+0394
ENCODING 916
SWIDTH 1000 0
DWIDTH 8 0
BBX 8 14 0 0
BITMAP
18
18
3C
3C
3C
3C
66
66
66
66
C3
C3
FF
FF
ENDCHAR
STARTCHAR U+0395
ENCODING 917
SWIDTH 1000 0
DWIDTH 8 0
BBX 7 14 0 0
BITMAP
FE
FE
66
66
60
60
78
78
60
60
66
66
FE
FE
ENDCHAR
STARTCHAR U+0396
ENCODING 918
SWIDTH 1000 0
DWIDTH 8 0
BBX 7 14 0 0
BITMAP
FE
FE
C6
C6
8C
8C
18
18
32
32
66
66
FE
FE
ENDCHAR
STARTCHAR U+0397
ENCODING 919
SWIDTH 1000 0
DWIDTH 8 0
BBX 6 14 1 0
BITMAP
CC
CC
CC
CC
CC
CC
FC
FC
CC
CC
CC
CC
CC
CC
ENDCHAR
STARTCHAR U+0398
ENCODING 920
SWIDTH 1000 0
DWIDTH 8 0
BBX 7 14 0 0
BITMAP
38
38
6C
6C
C6
C6
FE
FE
C6
C6
6C
6C
38
38
ENDCHAR
STARTCHAR U+0399
ENCODING 921
SWIDTH 1000 0
DWIDTH 8 0
BBX 6 14 1 0
BITMAP
FC
FC
30
30
30
30
30
30
30
30
30
30
FC
FC
ENDCHAR
STARTCHAR U+039A
ENCODING 922
SWIDTH 1000 0
DWIDTH 8 0
BBX 7 14 0 0
BITMAP
E6
E6
66
66
6C
6C
78
78
6C
6C
66
66
E6
E6
ENDCHAR
STARTCHAR U+039B
ENCODING 923
SWIDTH 1000 0
DWIDTH 8 0
BBX 8 14 0 0
BITMAP
18
18
3C
3C
3C
3C
66
66
66
66
C3
C3
C3
C3
ENDCHAR
STARTCHAR U+039C
ENCODING 924
SWIDTH 1000 0
DWIDTH 8 0
BBX 7 14 0 0
BITMAP
82
82
C6
C6
EE
EE
FE
FE
D6
D6
C6
C6
C6
C6
ENDCHAR
STARTCHAR U+039D
ENCODING 925
SWIDTH 1000 0
DWIDTH 8 0
BBX 7 14 0 0
BITMAP
C6
C6
E6
E6
F6
F6
DE
DE
CE
CE
C6
C6
C6
C6
ENDCHAR
STARTCHAR U+039E
ENCODING 926
SWIDTH 1000 0
DWIDTH 8 0
BBX 7 14 0 0
BITMAP
FE
FE
00
00
00
00
7C
7C
00
00
00
00
FE
FE
ENDCHAR
STARTCHAR U+039F
ENCODING 927
SWIDTH 1000 0
DWIDTH 8 0
BBX 7 14 0 0
BITMAP
38
38
6C
6C
C6
C6
C6
C6
C6
C6
6C
6C
38
38
ENDCHAR
STARTCHAR U+03A0
ENCODING 928
SWIDTH 1000 0
DWIDTH 8 0
BBX 8 14 0 0
BITMAP
FF
FF
66
66
66
66
66
66
66
66
66
66
E7
E7
ENDCHAR
STARTCHAR U+03A1
ENCODING 929
SWIDTH 1000 0
DWIDTH 8 0
BBX 7 14 0 0
BITMAP
FC
FC
66
66
66
66
7C
7C
60
60
60
60
F0
F0
ENDCHAR
STARTCHAR U+03A3
ENCODING 931
SWIDTH 1000 0
DWIDTH 8 0
BBX 7 14 0 0
BITMAP
FE
FE
66
66
30
30
18
18
30
30
66
66
FE
FE
ENDCHAR
STARTCHAR U+03A4
ENCODING 932
SWIDTH 1000 0
DWIDTH 8 0
BBX 6 14 1 0
BITMAP
FC
FC
B4
B4
30
30
30
30
30
30
30
30
78
78
ENDCHAR
STARTCHAR U+03A5
ENCODING 933
SWIDTH 1000 0
DWIDTH 8 0
BBX 8 14 0 0
BITMAP
C3
C3
C3
C3
66
66
3C
3C
18
18
18
18
3C
3C
ENDCHAR
STARTCHAR U+03A6
ENCODING 934
SWIDTH 1000 0
DWIDTH 8 0
BBX 8 14 0 0
BITMAP
18
18
7E
7E
DB
DB
DB
DB
DB
DB
7E
7E
18
18
ENDCHAR
STARTCHAR U+03A7
ENCODING 935
SWIDTH 1000 0
DWIDTH 8 0
BBX 8 14 0 0
BITMAP
C3
C3
66
66
3C
3C
18
18
3C
3C
66
66
C3
C3
ENDCHAR
STARTCHAR U+03A8
ENCODING 936
SWIDTH 1000 0
DWIDTH 8 0
BBX 8 14 0 0
BITMAP
DB
DB
DB
DB
DB
DB
7E
7E
18
18
18
18
18
18
ENDCHAR
STARTCHAR U+03A9
ENCODING 937
SWIDTH 1000 0
DWIDTH 8 0
BBX 7 14 0 0
BITMAP
38
38
6C
6C
C6
C6
C6
C6
C6
C6
6C
6C
EE
EE
ENDCHAR
STARTCHAR U+03AA
ENCODING 938
SWIDTH 1000 0
DWIDTH 8 0
BBX 6 14 1 0
BITMAP
CC
CC
00
00
FC
FC
30
30
30
30
30
30
FC
FC
ENDCHAR
STARTCHAR U+03AB
ENCODING 939
SWIDTH 1000 0
DWIDTH 8 0
BBX 8 14 0 0
BITMAP
66
66
00
00
C3
C3
66
66
3C
3C
18
18
3C
3C
ENDCHAR
STARTCHAR U+03AC
ENCODING 940
SWIDTH 1000 0
DWIDTH 8 0
BBX 7 14 1 0
BITMAP
18
18
10
10
76
76
CC
CC
CC
CC
CC
CC
76
76
ENDCHAR
STARTCHAR U+03AD
ENCODING 941
SWIDTH 1000 0
DWIDTH 8 0
BBX 5 14 1 0
BITMAP
30
30
20
20
78
78
C0
C0
60
60
C0
C0
78
78
ENDCHAR
STARTCHAR U+03AE
ENCODING 942
SWIDTH 1000 0
DWIDTH 8 0
BBX 6 16 1 -2
BITMAP
30
30
20
20
F8
F8
CC
CC
CC
CC
CC
CC
CC
CC
08
08
ENDCHAR
STARTCHAR U+03AF
ENCODING 943
SWIDTH 1000 0
DWIDTH 8 0
BBX 3 14 3 0
BITMAP
C0
C0
80
80
C0
C0
C0
C0
C0
C0
C0
C0
60
60
ENDCHAR
STARTCHAR U+03B0
ENCODING 944
SWIDTH 1000 0
DWIDTH 8 0
BBX 8 14 0 0
BITMAP
DB
DB
10
10
66
66
66
66
66
66
66
66
7C
7C
ENDCHAR
STARTCHAR U+03B1
ENCODING 945
SWIDTH 1000 0
DWIDTH 8 0
BBX 7 10 1 0
BITMAP
76
76
CC
CC
CC
CC
CC
CC
76
76
ENDCHAR
STARTCHAR U+03B2
ENCODING 946
SWIDTH 1000 0
DWIDTH 8 0
BBX 6 16 1 -2
BITMAP
78
78
CC
CC
CC
CC
D8
D8
CC
CC
CC
CC
F8
F8
C0
C0
ENDCHAR
STARTCHAR U+03B3
ENCODING 947
SWIDTH 1000 0
DWIDTH 8 0
BBX 8 12 0 -2
BITMAP
C3
C3
C3
C3
66
66
3C
3C
66
66
3C
3C
ENDCHAR
STARTCHAR U+03B4
ENCODING 948
SWIDTH 1000 0
DWIDTH 8 0
BBX 6 14 1 0
BITMAP
1C
1C
30
30
18
18
6C
6C
CC
CC
CC
CC
78
78
ENDCHAR
STARTCHAR U+03B5
ENCODING 949
SWIDTH 1000 0
DWIDTH 8 0
BBX 5 10 1 0
BITMAP
78
78
C0
C0
60
60
C0
C0
78
78
ENDCHAR
STARTCHAR U+03B6
ENCODING 950
SWIDTH 1000 0
DWIDTH 8 0
BBX 8 16 0 -2
BITMAP
FF
FF
06
06
1C
1C
70
70
C0
C0
C0
C0
7E
7E
03
03
ENDCHAR
STARTCHAR U+03B7
ENCODING 951
SWIDTH 1000 0
DWIDTH 8 0
BBX 6 12 1 -2
BITMAP
F8
F8
CC
CC
CC
CC
CC
CC
CC
CC
08
08
ENDCHAR
STARTCHAR U+03B8
ENCODING 952
SWIDTH 1000 0
DWIDTH 8 0
BBX 6 14 1 0
BITMAP
78
78
CC
CC
CC
CC
FC
FC
CC
CC
CC
CC
78
78
ENDCHAR
STARTCHAR U+03B9
ENCODING 953
SWIDTH 1000 0
DWIDTH 8 0
BBX 3 10 3 0
BITMAP
C0
C0
C0
C0
C0
C0
C0
C0
60
60
ENDCHAR
STARTCHAR U+03BA
ENCODING 954
SWIDTH 1000 0
DWIDTH 8 0
BBX 6 10 1 0
BITMAP
CC
CC
D8
D8
F0
F0
D8
D8
CC
CC
ENDCHAR
STARTCHAR U+03BB
ENCODING 955
SWIDTH 1000 0
DWIDTH 8 0
BBX 8 14 0 0
BITMAP
18
18
0C
0C
0C
0C
1C
1C
36
36
66
66
C3
C3
ENDCHAR
STARTCHAR U+03BC
ENCODING 956
SWIDTH 1000 0
DWIDTH 8 0
BBX 7 12 0 -2
BITMAP
C6
C6
C6
C6
C6
C6
EE
EE
FA
FA
C0
C0
ENDCHAR
STARTCHAR U+03BD
ENCODING 957
SWIDTH 1000 0
DWIDTH 8 0
BBX 6 10 1 0
BITMAP
CC
CC
CC
CC
CC
CC
78
78
30
30
ENDCHAR
STARTCHAR U+03BE
ENCODING 958
SWIDTH 1000 0
DWIDTH 8 0
BBX 7 12 0 -2
BITMAP
FE
FE
60
60
30
30
C0
C0
7C
7C
06
06
ENDCHAR
STARTCHAR U+03BF
ENCODING 959
SWIDTH 1000 0
DWIDTH 8 0
BBX 6 10 1 0
BITMAP
78
78
CC
CC
CC
CC
CC
CC
78
78
ENDCHAR
STARTCHAR U+03C0
ENCODING 960
SWIDTH 1000 0
DWIDTH 8 0
BBX 7 10 1 0
BITMAP
FE
FE
6C
6C
6C
6C
CC
CC
C6
C6
ENDCHAR
STARTCHAR U+03C1
ENCODING 961
SWIDTH 1000 0
DWIDTH 8 0
BBX 7 12 0 -2
BITMAP
3C
3C
66
66
66
66
7C
7C
60
60
C0
C0
ENDCHAR
STARTCHAR U+03C2
ENCODING 962
SWIDTH 1000 0
DWIDTH 8 0
BBX 6 12 1 -2
BITMAP
78
78
CC
CC
C0
C0
60
60
38
38
0C
0C
ENDCHAR
STARTCHAR U+03C3
ENCODING 963
SWIDTH 1000 0
DWIDTH 8 0
BBX 7 10 1 0
BITMAP
7E
7E
CC
CC
CC
CC
CC
CC
78
78
ENDCHAR
STARTCHAR U+03C4
ENCODING 964
SWIDTH 1000 0
DWIDTH 8 0
BBX 6 10 1 0
BITMAP
FC
FC
30
30
30
30
30
30
18
18
ENDCHAR
STARTCHAR U+03C5
ENCODING 965
SWIDTH 1000 0
DWIDTH 8 0
BBX 6 10 1 0
BITMAP
CC
CC
CC
CC
CC
CC
CC
CC
F8
F8
ENDCHAR
STARTCHAR U+03C6
ENCODING 966
SWIDTH 1000 0
DWIDTH 8 0
BBX 8 12 0 -2
BITMAP
6E
6E
DB
DB
DB
DB
DB
DB
7E
7E
18
18
ENDCHAR
STARTCHAR U+03C7
ENCODING 967
SWIDTH 1000 0
DWIDTH 8 0
BBX 7 12 0 -2
BITMAP
C6
C6
6C
6C
38
38
38
38
6C
6C
C6
C6
ENDCHAR
STARTCHAR U+03C8
ENCODING 968
SWIDTH 1000 0
DWIDTH 8 0
BBX 8 14 0 -2
BITMAP
18
18
DB
DB
DB
DB
DB
DB
DB
DB
7E
7E
18
18
ENDCHAR
STARTCHAR U+03C9
ENCODING 969
SWIDTH 1000 0
DWIDTH 8 0
BBX 7 10 1 0
BITMAP
6C
6C
C6
C6
D6
D6
D6
D6
6C
6C
ENDCHAR
STARTCHAR U+03CA
ENCODING 970
SWIDTH 1000 0
DWIDTH 8 0
BBX 6 14 1 0
BITMAP
CC
CC
00
00
30
30
30
30
30
30
30
30
18
18
ENDCHAR
STARTCHAR U+03CB
ENCODING 971
SWIDTH 1000 0
DWIDTH 8 0
BBX 6 14 1 0
BITMAP
CC
CC
00
00
CC
CC
CC
CC
CC
CC
CC
CC
F8
F8
ENDCHAR
STARTCHAR U+03CC
ENCODING 972
SWIDTH 1000 0
DWIDTH 8 0
BBX 6 14 1 0
BITMAP
30
30
20
20
78
78
CC
CC
CC
CC
CC
CC
78
78
ENDCHAR
STARTCHAR U+03CD
ENCODING 973
SWIDTH 1000 0
DWIDTH 8 0
BBX 6 14 1 0
BITMAP
30
30
20
20
CC
CC
CC
CC
CC
CC
CC
CC
F8
F8
ENDCHAR
STARTCHAR U+03CE
ENCODING 974
SWIDTH 1000 0
DWIDTH 8 0
BBX 7 14 1 0
BITMAP
18
18
10
10
6C
6C
C6
C6
D6
D6
D6
D6
6C
6C
ENDCHAR
STARTCHAR U+0400
ENCODING 1024
SWIDTH 1000 0
DWIDTH 8 0
BBX 7 14 0 0
BITMAP
60
60
10
10
FE
FE
60
60
78
78
60
60
FE
FE
ENDCHAR
STARTCHAR U+0401
ENCODING 1025
SWIDTH 1000 0
DWIDTH 8 0
BBX 7 14 0 0
BITMAP
66
66
00
00
FE
FE
60
60
78
78
60
60
FE
FE
ENDCHAR
STARTCHAR U+0402
ENCODING 1026
SWIDTH 1000 0
DWIDTH 8 0
BBX 8 14 0 0
BITMAP
FC
FC
B4
B4
30
30
3E
3E
33
33
33
33
76
76
ENDCHAR
STARTCHAR U+0403
ENCODING 1027
SWIDTH 1000 0
DWIDTH 8 0
BBX 7 14 0 0
BITMAP
18
18
20
20
FE
FE
66
66
60
60
60
60
F0
F0
ENDCHAR
STARTCHAR U+0404
ENCODING 1028
SWIDTH 1000 0
DWIDTH 8 0
BBX 7 14 0 0
BITMAP
3C
3C
66
66
C0
C0
FC
FC
C0
C0
66
66
3C
3C
ENDCHAR
STARTCHAR U+0405
ENCODING 1029
SWIDTH 1000 0
DWIDTH 8 0
BBX 6 14 1 0
BITMAP
78
78
CC
CC
E0
E0
70
70
1C
1C
CC
CC
78
78
ENDCHAR
STARTCHAR U+0406
ENCODING 1030
SWIDTH 1000 0
DWIDTH 8 0
BBX 6 14 1 0
BITMAP
FC
FC
30
30
30
30
30
30
30
30
30
30
FC
FC
ENDCHAR
STARTCHAR U+0407
ENCODING 1031
SWIDTH 1000 0
DWIDTH 8 0
BBX 6 14 1 0
BITMAP
CC
CC
00
00
FC
FC
30
30
30
30
30
30
FC
FC
ENDCHAR
STARTCHAR U+0408
ENCODING 1032
SWIDTH 1000 0
DWIDTH 8 0
BBX 6 14 1 0
BITMAP
1C
1C
0C
0C
0C
0C
0C
0C
CC
CC
CC
CC
78
78
ENDCHAR
STARTCHAR U+0409
ENCODING 1033
SWIDTH 1000 0
DWIDTH 8 0
BBX 8 14 0 0
BITMAP
FC
FC
D8
D8
D8
D8
DE
DE
DB
DB
DB
DB
9E
9E
ENDCHAR
STARTCHAR U+040A
ENCODING 1034
SWIDTH 1000 0
DWIDTH 8 0
BBX 8 14 0 0
BITMAP
D8
D8
D8
D8
D8
D8
FE
FE
DB
DB
DB
DB
DE
DE
ENDCHAR
STARTCHAR U+040B
ENCODING 1035
SWIDTH 1000 0
DWIDTH 8 0
BBX 8 14 0 0
BITMAP
FC
FC
B4
B4
30
30
3E
3E
33
33
33
33
73
73
ENDCHAR
STARTCHAR U+040C
ENCODING 1036
SWIDTH 1000 0
DWIDTH 8 0
BBX 7 14 0 0
BITMAP
0C
0C
10
10
E6
E6
6C
6C
78
78
6C
6C
E6
E6
ENDCHAR
STARTCHAR U+040D
ENCODING 1037
SWIDTH 1000 0
DWIDTH 8 0
BBX 7 14 0 0
BITMAP
18
18
20
20
CE
CE
DE
DE
F6
F6
E6
E6
C6
C6
ENDCHAR
STARTCHAR U+040E
ENCODING 1038
SWIDTH 1000 0
DWIDTH 8 0
BBX 8 14 0 0
BITMAP
C3
C3
7E
7E
66
66
66
66
3C
3C
18
18
70
70
ENDCHAR
STARTCHAR U+040F
ENCODING 1039
SWIDTH 1000 0
DWIDTH 8 0
BBX 8 16 0 -2
BITMAP
E7
E7
66
66
66
66
66
66
66
66
66
66
FF
FF
18
18
ENDCHAR
STARTCHAR U+0410
ENCODING 1040
SWIDTH 1000 0
DWIDTH 8 0
BBX 8 14 0 0
BITMAP
18
18
3C
3C
3C
3C
66
66
7E
7E
C3
C3
C3
C3
ENDCHAR
STARTCHAR U+0411
ENCODING 1041
SWIDTH 1000 0
DWIDTH 8 0
BBX 7 14 0 0
BITMAP
FE
FE
66
66
60
60
7C
7C
66
66
66
66
FC
FC
ENDCHAR
STARTCHAR U+0412
ENCODING 1042
SWIDTH 1000 0
DWIDTH 8 0
BBX 7 14 0 0
BITMAP
FC
FC
66
66
66
66
7C
7C
66
66
66
66
FC
FC
ENDCHAR
STARTCHAR U+0413
ENCODING 1043
SWIDTH 1000 0
DWIDTH 8 0
BBX 7 14 0 0
BITMAP
FE
FE
66
66
60
60
60
60
60
60
60
60
F0
F0
ENDCHAR
STARTCHAR U+0414
ENCODING 1044
SWIDTH 1000 0
DWIDTH 8 0
BBX 8 16 0 -2
BITMAP
7F
7F
36
36
36
36
36
36
66
66
66
66
FF
FF
C3
C3
ENDCHAR
STARTCHAR U+0415
ENCODING 1045
SWIDTH 1000 0
DWIDTH 8 0
BBX 7 14 0 0
BITMAP
FE
FE
66
66
60
60
78
78
60
60
66
66
FE
FE
ENDCHAR
STARTCHAR U+0416
ENCODING 1046
SWIDTH 1000 0
DWIDTH 8 0
BBX 8 14 0 0
BITMAP
DB
DB
DB
DB
5A
5A
3C
3C
5A
5A
DB
DB
DB
DB
ENDCHAR
STARTCHAR U+0417
ENCODING 1047
SWIDTH 1000 0
DWIDTH 8 0
BBX 6 14 1 0
BITMAP
78
78
CC
CC
0C
0C
38
38
0C
0C
CC
CC
78
78
ENDCHAR
STARTCHAR U+0418
ENCODING 1048
SWIDTH 1000 0
DWIDTH 8 0
BBX 7 14 0 0
BITMAP
C6
C6
C6
C6
CE
CE
DE
DE
F6
F6
E6
E6
C6
C6
ENDCHAR
STARTCHAR U+0419
ENCODING 1049
SWIDTH 1000 0
DWIDTH 8 0
BBX 7 14 0 0
BITMAP
C6
C6
7C
7C
CE
CE
DE
DE
F6
F6
E6
E6
C6
C6
ENDCHAR
STARTCHAR U+041A
ENCODING 1050
SWIDTH 1000 0
DWIDTH 8 0
BBX 7 14 0 0
BITMAP
E6
E6
66
66
6C
6C
78
78
6C
6C
66
66
E6
E6
ENDCHAR
STARTCHAR U+041B
ENCODING 1051
SWIDTH 1000 0
DWIDTH 8 0
BBX 8 14 0 0
BITMAP
7F
7F
36
36
36
36
36
36
66
66
66
66
CF
CF
ENDCHAR
STARTCHAR U+041C
ENCODING 1052
SWIDTH 1000 0
DWIDTH 8 0
BBX 7 14 0 0
BITMAP
82
82
C6
C6
EE
EE
FE
FE
D6
D6
C6
C6
C6
C6
ENDCHAR
STARTCHAR U+041D
ENCODING 1053
SWIDTH 1000 0
DWIDTH 8 0
BBX 6 14 1 0
BITMAP
CC
CC
CC
CC
CC
CC
FC
FC
CC
CC
CC
CC
CC
CC
ENDCHAR
STARTCHAR U+041E
ENCODING 1054
SWIDTH 1000 0
DWIDTH 8 0
BBX 7 14 0 0
BITMAP
38
38
6C
6C
C6
C6
C6
C6
C6
C6
6C
6C
38
38
ENDCHAR
STARTCHAR U+041F
ENCODING 1055
SWIDTH 1000 0
DWIDTH 8 0
BBX 8 14 0 0
BITMAP
FF
FF
66
66
66
66
66
66
66
66
66
66
E7
E7
ENDCHAR
STARTCHAR U+0420
ENCODING 1056
SWIDTH 1000 0
DWIDTH 8 0
BBX 7 14 0 0
BITMAP
FC
FC
66
66
66
66
7C
7C
60
60
60
60
F0
F0
ENDCHAR
STARTCHAR U+0421
ENCODING 1057
SWIDTH 1000 0
DWIDTH 8 0
BBX 7 14 0 0
BITMAP
3C
3C
66
66
C0
C0
C0
C0
C0
C0
66
66
3C
3C
ENDCHAR
STARTCHAR U+0422
ENCODING 1058
SWIDTH 1000 0
DWIDTH 8 0
BBX 6 14 1 0
BITMAP
FC
FC
B4
B4
30
30
30
30
30
30
30
30
78
78
ENDCHAR
STARTCHAR U+0423
ENCODING 1059
SWIDTH 1000 0
DWIDTH 8 0
BBX 8 14 0 0
BITMAP
C3
C3
C3
C3
66
66
66
66
3C
3C
18
18
70
70
ENDCHAR
STARTCHAR U+0424
ENCODING 1060
SWIDTH 1000 0
DWIDTH 8 0
BBX 8 14 0 0
BITMAP
18
18
7E
7E
DB
DB
DB
DB
DB
DB
7E
7E
18
18
ENDCHAR
STARTCHAR U+0425
ENCODING 1061
SWIDTH 1000 0
DWIDTH 8 0
BBX 8 14 0 0
BITMAP
C3
C3
66
66
3C
3C
18
18
3C
3C
66
66
C3
C3
ENDCHAR
STARTCHAR U+0426
ENCODING 1062
SWIDTH 1000 0
DWIDTH 8 0
BBX 8 16 0 -2
BITMAP
E7
E7
66
66
66
66
66
66
66
66
66
66
FF
FF
03
03
ENDCHAR
STARTCHAR U+0427
ENCODING 1063
SWIDTH 1000 0
DWIDTH 8 0
BBX 7 14 1 0
BITMAP
CE
CE
CC
CC
CC
CC
7C
7C
0C
0C
0C
0C
1E
1E
ENDCHAR
STARTCHAR U+0428
ENCODING 1064
SWIDTH 1000 0
DWIDTH 8 0
BBX 8 14 0 0
BITMAP
DB
DB
DB
DB
DB
DB
DB
DB
DB
DB
DB
DB
DB
FF
ENDCHAR
STARTCHAR U+0429
ENCODING 1065
SWIDTH 1000 0
DWIDTH 8 0
BBX 8 16 0 -2
BITMAP
DB
DB
DB
DB
DB
DB
DB
DB
DB
DB
DB
DB
DB
FF
03
03
ENDCHAR
STARTCHAR U+042A
ENCODING 1066
SWIDTH 1000 0
DWIDTH 8 0
BBX 8 14 0 0
BITMAP
F8
F8
B0
B0
3E
3E
33
33
33
33
33
33
7E
7E
ENDCHAR
STARTCHAR U+042B
ENCODING 1067
SWIDTH 1000 0
DWIDTH 8 0
BBX 8 14 0 0
BITMAP
E7
E7
C3
C3
F3
F3
DB
DB
DB
DB
DB
DB
F7
F7
ENDCHAR
STARTCHAR U+042C
ENCODING 1068
SWIDTH 1000 0
DWIDTH 8 0
BBX 7 14 0 0
BITMAP
E0
E0
60
60
7C
7C
66
66
66
66
66
66
FC
FC
ENDCHAR
STARTCHAR U+042D
ENCODING 1069
SWIDTH 1000 0
DWIDTH 8 0
BBX 7 14 1 0
BITMAP
78
78
CC
CC
06
06
7E
7E
06
06
CC
CC
78
78
ENDCHAR
STARTCHAR U+042E
ENCODING 1070
SWIDTH 1000 0
DWIDTH 8 0
BBX 8 14 0 0
BITMAP
CE
CE
DB
DB
DB
DB
FB
FB
DB
DB
DB
DB
CE
CE
ENDCHAR
STARTCHAR U+042F
ENCODING 1071
SWIDTH 1000 0
DWIDTH 8 0
BBX 8 14 0 0
BITMAP
3F
3F
66
66
66
66
3E
3E
36
36
66
66
C7
C7
ENDCHAR
STARTCHAR U+0430
ENCODING 1072
SWIDTH 1000 0
DWIDTH 8 0
BBX 7 10 1 0
BITMAP
78
78
0C
0C
3C
3C
CC
CC
76
76
ENDCHAR
STARTCHAR U+0431
ENCODING 1073
SWIDTH 1000 0
DWIDTH 8 0
BBX 6 14 1 0
BITMAP
38
38
60
60
D8
D8
EC
EC
CC
CC
CC
CC
78
78
ENDCHAR
STARTCHAR U+0432
ENCODING 1074
SWIDTH 1000 0
DWIDTH 8 0
BBX 7 10 0 0
BITMAP
FC
FC
66
66
7C
7C
66
66
FC
FC
ENDCHAR
STARTCHAR U+0433
ENCODING 1075
SWIDTH 1000 0
DWIDTH 8 0
BBX 7 10 0 0
BITMAP
FE
FE
66
66
60
60
60
60
F0
F0
ENDCHAR
STARTCHAR U+0434
ENCODING 1076
SWIDTH 1000 0
DWIDTH 8 0
BBX 8 12 0 -2
BITMAP
7F
7F
36
36
36
36
66
66
FF
FF
C3
C3
ENDCHAR
STARTCHAR U+0435
ENCODING 1077
SWIDTH 1000 0
DWIDTH 8 0
BBX 6 10 1 0
BITMAP
78
78
CC
CC
FC
FC
C0
C0
78
78
ENDCHAR
STARTCHAR U+0436
ENCODING 1078
SWIDTH 1000 0
DWIDTH 8 0
BBX 8 10 0 0
BITMAP
DB
DB
5A
5A
3C
3C
5A
5A
DB
DB
ENDCHAR
STARTCHAR U+0437
ENCODING 1079
SWIDTH 1000 0
DWIDTH 8 0
BBX 5 10 2 0
BITMAP
F0
F0
18
18
30
30
18
18
F0
F0
ENDCHAR
STARTCHAR U+0438
ENCODING 1080
SWIDTH 1000 0
DWIDTH 8 0
BBX 7 10 0 0
BITMAP
C6
C6
CE
CE
D6
D6
E6
E6
C6
C6
ENDCHAR
STARTCHAR U+0439
ENCODING 1081
SWIDTH 1000 0
DWIDTH 8 0
BBX 7 14 0 0
BITMAP
C6
C6
7C
7C
C6
C6
CE
CE
D6
D6
E6
E6
C6
C6
ENDCHAR
STARTCHAR U+043A
ENCODING 1082
SWIDTH 1000 0
DWIDTH 8 0
BBX 7 10 0 0
BITMAP
E6
E6
6C
6C
78
78
6C
6C
E6
E6
ENDCHAR
STARTCHAR U+043B
ENCODING 1083
SWIDTH 1000 0
DWIDTH 8 0
BBX 8 10 0 0
BITMAP
7F
7F
36
36
36
36
66
66
CF
CF
ENDCHAR
STARTCHAR U+043C
ENCODING 1084
SWIDTH 1000 0
DWIDTH 8 0
BBX 7 10 0 0
BITMAP
82
82
C6
C6
EE
EE
FE
FE
D6
D6
ENDCHAR
STARTCHAR U+043D
ENCODING 1085
SWIDTH 1000 0
DWIDTH 8 0
BBX 6 10 1 0
BITMAP
CC
CC
CC
CC
FC
FC
CC
CC
CC
CC
ENDCHAR
STARTCHAR U+043E
ENCODING 1086
SWIDTH 1000 0
DWIDTH 8 0
BBX 6 10 1 0
BITMAP
78
78
CC
CC
CC
CC
CC
CC
78
78
ENDCHAR
STARTCHAR U+043F
ENCODING 1087
SWIDTH 1000 0
DWIDTH 8 0
BBX 8 10 0 0
BITMAP
FF
FF
66
66
66
66
66
66
E7
E7
ENDCHAR
STARTCHAR U+0440
ENCODING 1088
SWIDTH 1000 0
DWIDTH 8 0
BBX 7 12 0 -2
BITMAP
DC
DC
66
66
66
66
7C
7C
60
60
F0
F0
ENDCHAR
STARTCHAR U+0441
ENCODING 1089
SWIDTH 1000 0
DWIDTH 8 0
BBX 6 10 1 0
BITMAP
78
78
CC
CC
C0
C0
CC
CC
78
78
ENDCHAR
STARTCHAR U+0442
ENCODING 1090
SWIDTH 1000 0
DWIDTH 8 0
BBX 6 10 1 0
BITMAP
FC
FC
B4
B4
30
30
30
30
78
78
ENDCHAR
STARTCHAR U+0443
ENCODING 1091
SWIDTH 1000 0
DWIDTH 8 0
BBX 6 12 1 -2
BITMAP
CC
CC
CC
CC
CC
CC
78
78
30
30
E0
E0
ENDCHAR
STARTCHAR U+0444
ENCODING 1092
SWIDTH 1000 0
DWIDTH 8 0
BBX 8 14 0 -2
BITMAP
18
18
7E
7E
DB
DB
DB
DB
DB
DB
7E
7E
18
18
ENDCHAR
STARTCHAR U+0445
ENCODING 1093
SWIDTH 1000 0
DWIDTH 8 0
BBX 7 10 1 0
BITMAP
C6
C6
6C
6C
38
38
6C
6C
C6
C6
ENDCHAR
STARTCHAR U+0446
ENCODING 1094
SWIDTH 1000 0
DWIDTH 8 0
BBX 8 12 0 -2
BITMAP
E7
E7
66
66
66
66
66
66
FF
FF
03
03
ENDCHAR
STARTCHAR U+0447
ENCODING 1095
SWIDTH 1000 0
DWIDTH 8 0
BBX 7 10 1 0
BITMAP
CE
CE
CC
CC
7C
7C
0C
0C
1E
1E
ENDCHAR
STARTCHAR U+0448
ENCODING 1096
SWIDTH 1000 0
DWIDTH 8 0
BBX 8 10 0 0
BITMAP
DB
DB
DB
DB
DB
DB
DB
DB
DB
FF
ENDCHAR
STARTCHAR U+0449
ENCODING 1097
SWIDTH 1000 0
DWIDTH 8 0
BBX 8 12 0 -2
BITMAP
DB
DB
DB
DB
DB
DB
DB
DB
DB
FF
03
03
ENDCHAR
STARTCHAR U+044A
ENCODING 1098
SWIDTH 1000 0
DWIDTH 8 0
BBX 8 10 0 0
BITMAP
F8
F8
B0
B0
3E
3E
33
33
7E
7E
ENDCHAR
STARTCHAR U+044B
ENCODING 1099
SWIDTH 1000 0
DWIDTH 8 0
BBX 8 10 0 0
BITMAP
E7
E7
C3
C3
F3
F3
DB
DB
F7
F7
ENDCHAR
STARTCHAR U+044C
ENCODING 1100
SWIDTH 1000 0
DWIDTH 8 0
BBX 7 10 0 0
BITMAP
E0
E0
60
60
7C
7C
66
66
FC
FC
ENDCHAR
STARTCHAR U+044D
ENCODING 1101
SWIDTH 1000 0
DWIDTH 8 0
BBX 6 10 1 0
BITMAP
78
78
CC
CC
3C
3C
CC
CC
78
78
ENDCHAR
STARTCHAR U+044E
ENCODING 1102
SWIDTH 1000 0
DWIDTH 8 0
BBX 8 10 0 0
BITMAP
CE
CE
DB
DB
FB
FB
DB
DB
CE
CE
ENDCHAR
STARTCHAR U+044F
ENCODING 1103
SWIDTH 1000 0
DWIDTH 8 0
BBX 8 10 0 0
BITMAP
3F
3F
66
66
3E
3E
66
66
C7
C7
ENDCHAR
STARTCHAR U+0450
ENCODING 1104
SWIDTH 1000 0
DWIDTH 8 0
BBX 6 14 1 0
BITMAP
60
60
10
10
78
78
CC
CC
FC
FC
C0
C0
78
78
ENDCHAR
STARTCHAR U+0451
ENCODING 1105
SWIDTH 1000 0
DWIDTH 8 0
BBX 6 14 1 0
BITMAP
CC
CC
00
00
78
78
CC
CC
FC
FC
C0
C0
78
78
ENDCHAR
STARTCHAR U+0452
ENCODING 1106
SWIDTH 1000 0
DWIDTH 8 0
BBX 7 16 0 -2
BITMAP
60
60
F8
F8
60
60
7C
7C
66
66
66
66
E6
E6
0C
0C
ENDCHAR
STARTCHAR U+0453
ENCODING 1107
SWIDTH 1000 0
DWIDTH 8 0
BBX 7 14 0 0
BITMAP
18
18
20
20
FE
FE
66
66
60
60
60
60
F0
F0
ENDCHAR
STARTCHAR U+0454
ENCODING 1108
SWIDTH 1000 0
DWIDTH 8 0
BBX 6 10 1 0
BITMAP
78
78
CC
CC
F0
F0
CC
CC
78
78
ENDCHAR
STARTCHAR U+0455
ENCODING 1109
SWIDTH 1000 0
DWIDTH 8 0
BBX 6 10 1 0
BITMAP
7C
7C
C0
C0
78
78
0C
0C
F8
F8
ENDCHAR
STARTCHAR U+0456
ENCODING 1110
SWIDTH 1000 0
DWIDTH 8 0
BBX 4 14 2 0
BITMAP
60
60
00
00
E0
E0
60
60
60
60
60
60
F0
F0
ENDCHAR
STARTCHAR U+0457
ENCODING 1111
SWIDTH 1000 0
DWIDTH 8 0
BBX 6 14 1 0
BITMAP
CC
CC
00
00
70
70
30
30
30
30
30
30
78
78
ENDCHAR
STARTCHAR U+0458
ENCODING 1112
SWIDTH 1000 0
DWIDTH 8 0
BBX 6 16 1 -2
BITMAP
0C
0C
00
00
0C
0C
0C
0C
0C
0C
0C
0C
CC
CC
78
78
ENDCHAR
STARTCHAR U+0459
ENCODING 1113
SWIDTH 1000 0
DWIDTH 8 0
BBX 8 10 0 0
BITMAP
FC
FC
D8
D8
DE
DE
DB
DB
9E
9E
ENDCHAR
STARTCHAR U+045A
ENCODING 1114
SWIDTH 1000 0
DWIDTH 8 0
BBX 8 10 0 0
BITMAP
D8
D8
D8
D8
FE
FE
DB
DB
DE
DE
ENDCHAR
STARTCHAR U+045B
ENCODING 1115
SWIDTH 1000 0
DWIDTH 8 0
BBX 7 14 0 0
BITMAP
60
60
F8
F8
60
60
7C
7C
66
66
66
66
E6
E6
ENDCHAR
STARTCHAR U+045C
ENCODING 1116
SWIDTH 1000 0
DWIDTH 8 0
BBX 7 14 0 0
BITMAP
0C
0C
10
10
E6
E6
6C
6C
78
78
6C
6C
E6
E6
ENDCHAR
STARTCHAR U+045D
ENCODING 1117
SWIDTH 1000 0
DWIDTH 8 0
BBX 7 14 0 0
BITMAP
60
60
10
10
C6
C6
CE
CE
D6
D6
E6
E6
C6
C6
ENDCHAR
STARTCHAR U+045E
ENCODING 1118
SWIDTH 1000 0
DWIDTH 8 0
BBX 8 16 0 -2
BITMAP
C3
C3
7E
7E
66
66
66
66
66
66
3C
3C
18
18
70
70
ENDCHAR
STARTCHAR U+045F
ENCODING 1119
SWIDTH 1000 0
DWIDTH 8 0
BBX 8 12 0 -2
BITMAP
E7
E7
66
66
66
66
66
66
FF
FF
18
18
ENDCHAR
STARTCHAR U+0490
ENCODING 1168
SWIDTH 1000 0
DWIDTH 8 0
BBX 7 14 0 0
BITMAP
06
06
FE
FE
60
60
60
60
60
60
60
60
F0
F0
ENDCHAR
STARTCHAR U+0491
ENCODING 1169
SWIDTH 1000 0
DWIDTH 8 0
BBX 7 12 0 0
BITMAP
06
06
FE
FE
60
60
60
60
60
60
F0
F0
ENDCHAR
STARTCHAR U+1E80
ENCODING 7808
SWIDTH 1000 0
DWIDTH 8 0
BBX 7 14 0 0
BITMAP
30
30
08
08
C6
C6
D6
D6
FE
FE
EE
EE
C6
C6
ENDCHAR
STARTCHAR U+1E81
ENCODING 7809
SWIDTH 1000 0
DWIDTH 8 0
BBX 7 14 1 0
BITMAP
30
30
08
08
C6
C6
D6
D6
D6
D6
6C
6C
6C
6C
ENDCHAR
STARTCHAR U+1E82
ENCODING 7810
SWIDTH 1000 0
DWIDTH 8 0
BBX 7 14 0 0
BITMAP
18
18
20
20
C6
C6
D6
D6
FE
FE
EE
EE
C6
C6
ENDCHAR
STARTCHAR U+1E83
ENCODING 7811
SWIDTH 1000 0
DWIDTH 8 0
BBX 7 14 1 0
BITMAP
18
18
20
20
C6
C6
D6
D6
D6
D6
6C
6C
6C
6C
ENDCHAR
STARTCHAR U+1E84
ENCODING 7812
SWIDTH 1000 0
DWIDTH 8 0
BBX 7 14 0 0
BITMAP
6C
6C
00
00
C6
C6
D6
D6
FE
FE
EE
EE
C6
C6
ENDCHAR
STARTCHAR U+1E85
ENCODING 7813
SWIDTH 1000 0
DWIDTH 8 0
BBX 7 14 1 0
BITMAP
6C
6C
00
00
C6
C6
D6
D6
D6
D6
6C
6C
6C
6C
ENDCHAR
STARTCHAR U+1EF2
ENCODING 7922
SWIDTH 1000 0
DWIDTH 8 0
BBX 8 14 0 0
BITMAP
30
30
08
08
C3
C3
66
66
3C
3C
18
18
3C
3C
ENDCHAR
STARTCHAR U+1EF3
ENCODING 7923
SWIDTH 1000 0
DWIDTH 8 0
BBX 6 16 1 -2
BITMAP
60
60
10
10
CC
CC
CC
CC
CC
CC
78
78
30
30
E0
E0
ENDCHAR
STARTCHAR U+2013
ENCODING 8211
SWIDTH 1000 0
DWIDTH 8 0
BBX 6 2 1 6
BITMAP
FC
FC
ENDCHAR
STARTCHAR U+2014
ENCODING 8212
SWIDTH 1000 0
DWIDTH 8 0
BBX 8 2 0 6
BITMAP
FF
FF
ENDCHAR
STARTCHAR U+2015
ENCODING 8213
SWIDTH 1000 0
DWIDTH 8 0
BBX 8 2 0 6
BITMAP
FF
FF
ENDCHAR
STARTCHAR U+2017
ENCODING 8215
SWIDTH 1000 0
DWIDTH 8 0
BBX 8 6 0 -2
BITMAP
FF
FF
00
00
FF
FF
ENDCHAR
STARTCHAR U+2018
ENCODING 8216
SWIDTH 1000 0
DWIDTH 8 0
BBX 3 6 3 8
BITMAP
60
60
C0
C0
C0
C0
ENDCHAR
STARTCHAR U+2019
ENCODING 8217
SWIDTH 1000 0
DWIDTH 8 0
BBX 3 6 2 8
BITMAP
60
60
60
60
C0
C0
ENDCHAR
STARTCHAR U+201A
ENCODING 8218
SWIDTH 1000 0
DWIDTH 8 0
BBX 3 6 2 -2
BITMAP
60
60
60
60
C0
C0
ENDCHAR
STARTCHAR U+201B
ENCODING 8219
SWIDTH 1000 0
DWIDTH 8 0
BBX 3 6 3 8
BITMAP
C0
C0
C0
C0
60
60
ENDCHAR
STARTCHAR U+201C
ENCODING 8220
SWIDTH 1000 0
DWIDTH 8 0
BBX 6 6 1 8
BITMAP
6C
6C
D8
D8
D8
D8
ENDCHAR
STARTCHAR U+201D
ENCODING 8221
SWIDTH 1000 0
DWIDTH 8 0
BBX 6 6 1 8
BITMAP
6C
6C
6C
6C
D8
D8
ENDCHAR
STARTCHAR U+201E
ENCODING 8222
SWIDTH 1000 0
DWIDTH 8 0
BBX 6 6 1 -2
BITMAP
6C
6C
6C
6C
D8
D8
ENDCHAR
STARTCHAR U+201F
ENCODING 8223
SWIDTH 1000 0
DWIDTH 8 0
BBX 6 6 1 8
BITMAP
D8
D8
D8
D8
6C
6C
ENDCHAR
STARTCHAR U+2020
ENCODING 8224
SWIDTH 1000 0
DWIDTH 8 0
BBX 6 8 1 6
BITMAP
30
30
FC
FC
30
30
30
30
ENDCHAR
STARTCHAR U+2021
ENCODING 8225
SWIDTH 1000 0
DWIDTH 8 0
BBX 6 12 1 2
BITMAP
30
30
FC
FC
30
30
30
30
FC
FC
30
30
ENDCHAR
STARTCHAR U+2022
ENCODING 8226
SWIDTH 1000 0
DWIDTH 8 0
BBX 6 8 1 2
BITMAP
78
78
FC
FC
FC
FC
78
78
ENDCHAR
STARTCHAR U+2024
ENCODING 8228
SWIDTH 1000 0
DWIDTH 8 0
BBX 2 2 3 0
BITMAP
C0
C0
ENDCHAR
STARTCHAR U+2025
ENCODING 8229
SWIDTH 1000 0
DWIDTH 8 0
BBX 6 2 1 0
BITMAP
CC
CC
ENDCHAR
STARTCHAR U+2026
ENCODING 8230
SWIDTH 1000 0
DWIDTH 8 0
BBX 8 2 0 0
BITMAP
DB
DB
ENDCHAR
STARTCHAR U+2027
ENCODING 8231
SWIDTH 1000 0
DWIDTH 8 0
BBX 2 2 3 4
BITMAP
C0
C0
ENDCHAR
STARTCHAR U+2030
ENCODING 8240
SWIDTH 1000 0
DWIDTH 8 0
BBX 8 12 0 0
BITMAP
C6
C6
CC
CC
18
18
30
30
7B
7B
DB
DB
ENDCHAR
STARTCHAR U+2032
ENCODING 8242
SWIDTH 1000 0
DWIDTH 8 0
BBX 4 6 2 8
BITMAP
30
30
60
60
C0
C0
ENDCHAR
STARTCHAR U+2033
ENCODING 8243
SWIDTH 1000 0
DWIDTH 8 0
BBX 7 6 0 8
BITMAP
36
36
6C
6C
D8
D8
ENDCHAR
STARTCHAR U+2039
ENCODING 8249
SWIDTH 1000 0
DWIDTH 8 0
BBX 4 10 2 2
BITMAP
30
30
60
60
C0
C0
60
60
30
30
ENDCHAR
STARTCHAR U+203A
ENCODING 8250
SWIDTH 1000 0
DWIDTH 8 0
BBX 4 10 2 2
BITMAP
C0
C0
60
60
30
30
60
60
C0
C0
ENDCHAR
STARTCHAR U+203C
ENCODING 8252
SWIDTH 1000 0
DWIDTH 8 0
BBX 8 14 0 0
BITMAP
66
66
FF
FF
FF
FF
66
66
66
66
00
00
66
66
ENDCHAR
STARTCHAR U+203D
ENCODING 8253
SWIDTH 1000 0
DWIDTH 8 0
BBX 8 14 0 0
BITMAP
7E
7E
C3
C3
1B
1B
1E
1E
18
18
00
00
18
18
ENDCHAR
STARTCHAR U+203E
ENCODING 8254
SWIDTH 1000 0
DWIDTH 8 0
BBX 8 2 0 12
BITMAP
FF
FF
ENDCHAR
STARTCHAR U+2044
ENCODING 8260
SWIDTH 1000 0
DWIDTH 8 0
BBX 8 14 0 0
BITMAP
03
03
06
06
0C
0C
18
18
30
30
60
60
C0
C0
ENDCHAR
STARTCHAR U+207F
ENCODING 8319
SWIDTH 1000 0
DWIDTH 8 0
BBX 6 6 1 8
BITMAP
F8
F8
CC
CC
CC
CC
ENDCHAR
STARTCHAR U+20A3
ENCODING 8355
SWIDTH 1000 0
DWIDTH 8 0
BBX 7 14 0 0
BITMAP
FE
FE
60
60
78
78
60
60
F0
F0
60
60
F0
F0
ENDCHAR
STARTCHAR U+20A4
ENCODING 8356
SWIDTH 1000 0
DWIDTH 8 0
BBX 6 14 1 0
BITMAP
38
38
6C
6C
F0
F0
60
60
F0
F0
60
60
FC
FC
ENDCHAR
STARTCHAR U+20A7
ENCODING 8359
SWIDTH 1000 0
DWIDTH 8 0
BBX 8 14 0 0
BITMAP
F0
F0
D8
D8
D8
D8
F6
F6
CF
CF
C6
C6
C6
C6
ENDCHAR
STARTCHAR U+20AC
ENCODING 8364
SWIDTH 1000 0
DWIDTH 8 0
BBX 7 14 0 0
BITMAP
3C
3C
66
66
F8
F8
C0
C0
F8
F8
66
66
3C
3C
ENDCHAR
STARTCHAR U+2105
ENCODING 8453
SWIDTH 1000 0
DWIDTH 8 0
BBX 8 14 0 0
BITMAP
60
60
86
86
6C
6C
18
18
36
36
69
69
C6
C6
ENDCHAR
STARTCHAR U+2113
ENCODING 8467
SWIDTH 1000 0
DWIDTH 8 0
BBX 5 14 1 0
BITMAP
30
30
68
68
70
70
E0
E0
60
60
68
68
30
30
ENDCHAR
STARTCHAR U+2116
ENCODING 8470
SWIDTH 1000 0
DWIDTH 8 0
BBX 8 14 0 0
BITMAP
98
98
D8
D8
FE
FE
FB
FB
DE
DE
D8
D8
DE
DE
ENDCHAR
STARTCHAR U+2117
ENCODING 8471
SWIDTH 1000 0
DWIDTH 8 0
BBX 8 16 0 -2
BITMAP
7E
7E
81
81
B9
B9
A5
A5
B9
B9
A1
A1
81
81
7E
7E
ENDCHAR
STARTCHAR U+2120
ENCODING 8480
SWIDTH 1000 0
DWIDTH 8 0
BBX 8 6 0 8
BITMAP
7B
7B
55
55
D1
D1
ENDCHAR
STARTCHAR U+2122
ENCODING 8482
SWIDTH 1000 0
DWIDTH 8 0
BBX 8 6 0 8
BITMAP
FD
FD
6F
6F
69
69
ENDCHAR
STARTCHAR U+2126
ENCODING 8486
SWIDTH 1000 0
DWIDTH 8 0
BBX 7 14 0 0
BITMAP
38
38
6C
6C
C6
C6
C6
C6
C6
C6
6C
6C
EE
EE
ENDCHAR
STARTCHAR U+2127
ENCODING 8487
SWIDTH 1000 0
DWIDTH 8 0
BBX 7 14 0 0
BITMAP
EE
EE
6C
6C
C6
C6
C6
C6
C6
C6
6C
6C
38
38
ENDCHAR
STARTCHAR U+212E
ENCODING 8494
SWIDTH 1000 0
DWIDTH 8 0
BBX 6 10 1 0
BITMAP
78
78
CC
CC
FC
FC
C0
C0
78
78
ENDCHAR
STARTCHAR U+215B
ENCODING 8539
SWIDTH 1000 0
DWIDTH 8 0
BBX 7 16 1 -2
BITMAP
40
40
C6
C6
4C
4C
5C
5C
32
32
6C
6C
D2
D2
0C
0C
ENDCHAR
STARTCHAR U+215C
ENCODING 8540
SWIDTH 1000 0
DWIDTH 8 0
BBX 8 16 0 -2
BITMAP
C0
C0
23
23
66
66
2E
2E
D9
D9
36
36
69
69
06
06
ENDCHAR
STARTCHAR U+215D
ENCODING 8541
SWIDTH 1000 0
DWIDTH 8 0
BBX 8 16 0 -2
BITMAP
E0
E0
83
83
E6
E6
2E
2E
D9
D9
36
36
69
69
06
06
ENDCHAR
STARTCHAR U+215E
ENCODING 8542
SWIDTH 1000 0
DWIDTH 8 0
BBX 7 16 1 -2
BITMAP
E0
E0
26
26
4C
4C
9C
9C
B2
B2
6C
6C
D2
D2
0C
0C
ENDCHAR
STARTCHAR U+2190
ENCODING 8592
SWIDTH 1000 0
DWIDTH 8 0
BBX 7 10 0 0
BITMAP
20
20
60
60
FE
FE
60
60
20
20
ENDCHAR
STARTCHAR U+2191
ENCODING 8593
SWIDTH 1000 0
DWIDTH 8 0
BBX 6 10 1 0
BITMAP
30
30
78
78
FC
FC
30
30
30
30
ENDCHAR
STARTCHAR U+2192
ENCODING 8594
SWIDTH 1000 0
DWIDTH 8 0
BBX 7 10 1 0
BITMAP
08
08
0C
0C
FE
FE
0C
0C
08
08
ENDCHAR
STARTCHAR U+2193
ENCODING 8595
SWIDTH 1000 0
DWIDTH 8 0
BBX 6 10 1 0
BITMAP
30
30
30
30
FC
FC
78
78
30
30
ENDCHAR
STARTCHAR U+2194
ENCODING 8596
SWIDTH 1000 0
DWIDTH 8 0
BBX 8 10 0 0
BITMAP
24
24
66
66
FF
FF
66
66
24
24
ENDCHAR
STARTCHAR U+2195
ENCODING 8597
SWIDTH 1000 0
DWIDTH 8 0
BBX 6 14 1 0
BITMAP
30
30
78
78
FC
FC
30
30
FC
FC
78
78
30
30
ENDCHAR
STARTCHAR U+21A8
ENCODING 8616
SWIDTH 1000 0
DWIDTH 8 0
BBX 8 16 0 -2
BITMAP
18
18
3C
3C
7E
7E
18
18
7E
7E
3C
3C
18
18
FF
FF
ENDCHAR
STARTCHAR U+21B2
ENCODING 8626
SWIDTH 1000 0
DWIDTH 8 0
BBX 7 14 0 -2
BITMAP
06
06
06
06
26
26
66
66
FE
FE
60
60
20
20
ENDCHAR
STARTCHAR U+2202
ENCODING 8706
SWIDTH 1000 0
DWIDTH 8 0
BBX 6 14 1 0
BITMAP
70
70
18
18
0C
0C
7C
7C
CC
CC
CC
CC
78
78
ENDCHAR
STARTCHAR U+2206
ENCODING 8710
SWIDTH 1000 0
DWIDTH 8 0
BBX 8 14 0 0
BITMAP
18
18
3C
3C
3C
3C
66
66
66
66
C3
C3
FF
FF
ENDCHAR
STARTCHAR U+2207
ENCODING 8711
SWIDTH 1000 0
DWIDTH 8 0
BBX 8 14 0 0
BITMAP
FF
FF
C3
C3
66
66
66
66
3C
3C
3C
3C
18
18
ENDCHAR
STARTCHAR U+220F
ENCODING 8719
SWIDTH 1000 0
DWIDTH 8 0
BBX 8 14 0 0
BITMAP
FF
FF
66
66
66
66
66
66
66
66
66
66
E7
E7
ENDCHAR
STARTCHAR U+2210
ENCODING 8720
SWIDTH 1000 0
DWIDTH 8 0
BBX 8 14 0 0
BITMAP
E7
E7
66
66
66
66
66
66
66
66
66
66
FF
FF
ENDCHAR
STARTCHAR U+2211
ENCODING 8721
SWIDTH 1000 0
DWIDTH 8 0
BBX 7 14 0 0
BITMAP
FE
FE
66
66
30
30
18
18
30
30
66
66
FE
FE
ENDCHAR
STARTCHAR U+2212
ENCODING 8722
SWIDTH 1000 0
DWIDTH 8 0
BBX 7 2 0 6
BITMAP
FE
FE
ENDCHAR
STARTCHAR U+2215
ENCODING 8725
SWIDTH 1000 0
DWIDTH 8 0
BBX 8 14 0 0
BITMAP
03
03
06
06
0C
0C
18
18
30
30
60
60
C0
C0
ENDCHAR
STARTCHAR U+2219
ENCODING 8729
SWIDTH 1000 0
DWIDTH 8 0
BBX 6 8 1 2
BITMAP
78
78
FC
FC
FC
FC
78
78
ENDCHAR
STARTCHAR U+221A
ENCODING 8730
SWIDTH 1000 0
DWIDTH 8 0
BBX 8 16 0 -2
BITMAP
01
01
01
01
03
03
03
03
E6
E6
36
36
1C
1C
0C
0C
ENDCHAR
STARTCHAR U+221E
ENCODING 8734
SWIDTH 1000 0
DWIDTH 8 0
BBX 8 10 0 0
BITMAP
66
66
DB
DB
DB
DB
DB
DB
66
66
ENDCHAR
STARTCHAR U+221F
ENCODING 8735
SWIDTH 1000 0
DWIDTH 8 0
BBX 7 10 0 0
BITMAP
C0
C0
C0
C0
C0
C0
C0
C0
C0
FE
ENDCHAR
STARTCHAR U+2229
ENCODING 8745
SWIDTH 1000 0
DWIDTH 8 0
BBX 7 10 0 0
BITMAP
7C
7C
C6
C6
C6
C6
C6
C6
C6
C6
ENDCHAR
STARTCHAR U+222B
ENCODING 8747
SWIDTH 1000 0
DWIDTH 8 0
BBX 8 16 0 -2
BITMAP
0E
0E
1B
1B
18
18
18
18
18
18
18
18
D8
D8
70
70
ENDCHAR
STARTCHAR U+2248
ENCODING 8776
SWIDTH 1000 0
DWIDTH 8 0
BBX 8 10 0 0
BITMAP
71
71
8E
8E
00
00
71
71
8E
8E
ENDCHAR
STARTCHAR U+2260
ENCODING 8800
SWIDTH 1000 0
DWIDTH 8 0
BBX 7 12 0 0
BITMAP
0C
0C
FE
FE
18
18
30
30
FE
FE
60
60
ENDCHAR
STARTCHAR U+2261
ENCODING 8801
SWIDTH 1000 0
DWIDTH 8 0
BBX 6 10 1 0
BITMAP
FC
FC
00
00
FC
FC
00
00
FC
FC
ENDCHAR
STARTCHAR U+2264
ENCODING 8804
SWIDTH 1000 0
DWIDTH 8 0
BBX 4 14 2 0
BITMAP
30
30
60
60
C0
C0
60
60
30
30
00
00
F0
F0
ENDCHAR
STARTCHAR U+2265
ENCODING 8805
SWIDTH 1000 0
DWIDTH 8 0
BBX 4 14 2 0
BITMAP
C0
C0
60
60
30
30
60
60
C0
C0
00
00
F0
F0
ENDCHAR
STARTCHAR U+2302
ENCODING 8962
SWIDTH 1000 0
DWIDTH 8 0
BBX 7 10 0 0
BITMAP
38
38
6C
6C
C6
C6
C6
C6
FE
FE
ENDCHAR
STARTCHAR U+2307
ENCODING 8967
SWIDTH 1000 0
DWIDTH 8 0
BBX 4 14 2 0
BITMAP
60
60
C0
C0
C0
C0
60
60
30
30
30
30
60
60
ENDCHAR
STARTCHAR U+2310
ENCODING 8976
SWIDTH 1000 0
DWIDTH 8 0
BBX 5 4 1 10
BITMAP
F8
F8
C0
C0
ENDCHAR
STARTCHAR U+2318
ENCODING 8984
SWIDTH 1000 0
DWIDTH 8 0
BBX 8 14 0 0
BITMAP
42
42
A5
A5
7E
7E
24
24
7E
7E
A5
A5
42
42
ENDCHAR
STARTCHAR U+231B
ENCODING 8987
SWIDTH 1000 0
DWIDTH 8 0
BBX 7 14 0 0
BITMAP
FE
FE
C6
C6
6C
6C
38
38
6C
6C
D6
D6
FE
FE
ENDCHAR
STARTCHAR U+2320
ENCODING 8992
SWIDTH 1000 0
DWIDTH 8 0
BBX 5 16 3 -2
BITMAP
70
70
D8
D8
C0
C0
C0
C0
C0
C0
C0
C0
C0
C0
C0
C0
ENDCHAR
STARTCHAR U+2321
ENCODING 8993
SWIDTH 1000 0
DWIDTH 8 0
BBX 5 16 0 -2
BITMAP
18
18
18
18
18
18
18
18
18
18
18
18
D8
D8
70
70
ENDCHAR
STARTCHAR U+23BA
ENCODING 9146
SWIDTH 1000 0
DWIDTH 8 0
BBX 8 2 0 12
BITMAP
FF
FF
ENDCHAR
STARTCHAR U+23BB
ENCODING 9147
SWIDTH 1000 0
DWIDTH 8 0
BBX 8 2 0 8
BITMAP
FF
FF
ENDCHAR
STARTCHAR U+23BC
ENCODING 9148
SWIDTH 1000 0
DWIDTH 8 0
BBX 8 2 0 0
BITMAP
FF
FF
ENDCHAR
STARTCHAR U+23BD
ENCODING 9149
SWIDTH 1000 0
DWIDTH 8 0
BBX 8 2 0 -2
BITMAP
FF
FF
ENDCHAR
STARTCHAR U+23E0
ENCODING 9184
SWIDTH 1000 0
DWIDTH 8 0
BBX 8 4 0 10
BITMAP
7E
7E
C3
C3
ENDCHAR
STARTCHAR U+23E1
ENCODING 9185
SWIDTH 1000 0
DWIDTH 8 0
BBX 8 4 0 -2
BITMAP
C3
C3
7E
7E
ENDCHAR
STARTCHAR U+2426
ENCODING 9254
SWIDTH 1000 0
DWIDTH 8 0
BBX 6 14 1 0
BITMAP
78
78
CC
CC
C0
C0
60
60
30
30
00
00
30
30
ENDCHAR
STARTCHAR U+2500
ENCODING 9472
SWIDTH 1000 0
DWIDTH 8 0
BBX 8 2 0 4
BITMAP
FF
FF
ENDCHAR
STARTCHAR U+2501
ENCODING 9473
SWIDTH 1000 0
DWIDTH 8 0
BBX 8 4 0 4
BITMAP
FF
FF
FF
FF
ENDCHAR
STARTCHAR U+2502
ENCODING 9474
SWIDTH 1000 0
DWIDTH 8 0
BBX 2 16 3 -2
BITMAP
C0
C0
C0
C0
C0
C0
C0
C0
C0
C0
C0
C0
C0
C0
C0
C0
ENDCHAR
STARTCHAR U+2503
ENCODING 9475
SWIDTH 1000 0
DWIDTH 8 0
BBX 3 16 3 -2
BITMAP
E0
E0
E0
E0
E0
E0
E0
E0
E0
E0
E0
E0
E0
E0
E0
E0
ENDCHAR
STARTCHAR U+2504
ENCODING 9476
SWIDTH 1000 0
DWIDTH 8 0
BBX 8 2 0 4
BITMAP
DB
DB
ENDCHAR
STARTCHAR U+2505
ENCODING 9477
SWIDTH 1000 0
DWIDTH 8 0
BBX 8 4 0 4
BITMAP
DB
DB
DB
DB
ENDCHAR
STARTCHAR U+2506
ENCODING 9478
SWIDTH 1000 0
DWIDTH 8 0
BBX 2 16 3 -2
BITMAP
C0
C0
C0
C0
00
00
C0
C0
C0
C0
00
00
C0
C0
C0
C0
ENDCHAR
STARTCHAR U+2507
ENCODING 9479
SWIDTH 1000 0
DWIDTH 8 0
BBX 3 16 3 -2
BITMAP
E0
E0
E0
E0
00
00
E0
E0
E0
E0
00
00
E0
E0
E0
E0
ENDCHAR
STARTCHAR U+2508
ENCODING 9480
SWIDTH 1000 0
DWIDTH 8 0
BBX 7 2 0 4
BITMAP
AA
AA
ENDCHAR
STARTCHAR U+2509
ENCODING 9481
SWIDTH 1000 0
DWIDTH 8 0
BBX 7 4 0 4
BITMAP
AA
AA
AA
AA
ENDCHAR
STARTCHAR U+250A
ENCODING 9482
SWIDTH 1000 0
DWIDTH 8 0
BBX 2 14 3 0
BITMAP
C0
C0
00
00
C0
C0
00
00
C0
C0
00
00
C0
C0
ENDCHAR
STARTCHAR U+250B
ENCODING 9483
SWIDTH 1000 0
DWIDTH 8 0
BBX 3 14 3 0
BITMAP
E0
E0
00
00
E0
E0
00
00
E0
E0
00
00
E0
E0
ENDCHAR
STARTCHAR U+250C
ENCODING 9484
SWIDTH 1000 0
DWIDTH 8 0
BBX 5 8 3 -2
BITMAP
F8
F8
C0
C0
C0
C0
C0
C0
ENDCHAR
STARTCHAR U+250F
ENCODING 9487
SWIDTH 1000 0
DWIDTH 8 0
BBX 5 10 3 -2
BITMAP
F8
F8
F8
F8
E0
E0
E0
E0
E0
E0
ENDCHAR
STARTCHAR U+2510
ENCODING 9488
SWIDTH 1000 0
DWIDTH 8 0
BBX 5 8 0 -2
BITMAP
F8
F8
18
18
18
18
18
18
ENDCHAR
STARTCHAR U+2513
ENCODING 9491
SWIDTH 1000 0
DWIDTH 8 0
BBX 6 10 0 -2
BITMAP
FC
FC
FC
FC
1C
1C
1C
1C
1C
1C
ENDCHAR
STARTCHAR U+2514
ENCODING 9492
SWIDTH 1000 0
DWIDTH 8 0
BBX 5 10 3 4
BITMAP
C0
C0
C0
C0
C0
C0
C0
C0
F8
F8
ENDCHAR
STARTCHAR U+2517
ENCODING 9495
SWIDTH 1000 0
DWIDTH 8 0
BBX 5 10 3 4
BITMAP
E0
E0
E0
E0
E0
E0
F8
F8
F8
F8
ENDCHAR
STARTCHAR U+2518
ENCODING 9496
SWIDTH 1000 0
DWIDTH 8 0
BBX 5 10 0 4
BITMAP
18
18
18
18
18
18
18
18
F8
F8
ENDCHAR
STARTCHAR U+251B
ENCODING 9499
SWIDTH 1000 0
DWIDTH 8 0
BBX 6 10 0 4
BITMAP
1C
1C
1C
1C
1C
1C
FC
FC
FC
FC
ENDCHAR
STARTCHAR U+251C
ENCODING 9500
SWIDTH 1000 0
DWIDTH 8 0
BBX 5 16 3 -2
BITMAP
C0
C0
C0
C0
C0
C0
C0
C0
F8
F8
C0
C0
C0
C0
C0
C0
ENDCHAR
STARTCHAR U+2523
ENCODING 9507
SWIDTH 1000 0
DWIDTH 8 0
BBX 5 16 3 -2
BITMAP
E0
E0
E0
E0
E0
E0
F8
F8
F8
F8
E0
E0
E0
E0
E0
E0
ENDCHAR
STARTCHAR U+2524
ENCODING 9508
SWIDTH 1000 0
DWIDTH 8 0
BBX 5 16 0 -2
BITMAP
18
18
18
18
18
18
18
18
F8
F8
18
18
18
18
18
18
ENDCHAR
STARTCHAR U+252B
ENCODING 9515
SWIDTH 1000 0
DWIDTH 8 0
BBX 6 16 0 -2
BITMAP
1C
1C
1C
1C
1C
1C
FC
FC
FC
FC
1C
1C
1C
1C
1C
1C
ENDCHAR
STARTCHAR U+252C
ENCODING 9516
SWIDTH 1000 0
DWIDTH 8 0
BBX 8 8 0 -2
BITMAP
FF
FF
18
18
18
18
18
18
ENDCHAR
STARTCHAR U+2533
ENCODING 9523
SWIDTH 1000 0
DWIDTH 8 0
BBX 8 10 0 -2
BITMAP
FF
FF
FF
FF
1C
1C
1C
1C
1C
1C
ENDCHAR
STARTCHAR U+2534
ENCODING 9524
SWIDTH 1000 0
DWIDTH 8 0
BBX 8 10 0 4
BITMAP
18
18
18
18
18
18
18
18
FF
FF
ENDCHAR
STARTCHAR U+253B
ENCODING 9531
SWIDTH 1000 0
DWIDTH 8 0
BBX 8 10 0 4
BITMAP
1C
1C
1C
1C
1C
1C
FF
FF
FF
FF
ENDCHAR
STARTCHAR U+253C
ENCODING 9532
SWIDTH 1000 0
DWIDTH 8 0
BBX 8 16 0 -2
BITMAP
18
18
18
18
18
18
18
18
FF
FF
18
18
18
18
18
18
ENDCHAR
STARTCHAR U+254B
ENCODING 9547
SWIDTH 1000 0
DWIDTH 8 0
BBX 8 16 0 -2
BITMAP
1C
1C
1C
1C
1C
1C
FF
FF
FF
FF
1C
1C
1C
1C
1C
1C
ENDCHAR
STARTCHAR U+254C
ENCODING 9548
SWIDTH 1000 0
DWIDTH 8 0
BBX 8 2 0 4
BITMAP
E7
E7
ENDCHAR
STARTCHAR U+254D
ENCODING 9549
SWIDTH 1000 0
DWIDTH 8 0
BBX 8 4 0 4
BITMAP
E7
E7
E7
E7
ENDCHAR
STARTCHAR U+254E
ENCODING 9550
SWIDTH 1000 0
DWIDTH 8 0
BBX 2 16 3 -2
BITMAP
C0
C0
C0
C0
C0
C0
C0
C0
00
00
C0
C0
C0
C0
C0
C0
ENDCHAR
STARTCHAR U+254F
ENCODING 9551
SWIDTH 1000 0
DWIDTH 8 0
BBX 3 16 3 -2
BITMAP
E0
E0
E0
E0
E0
E0
E0
E0
00
00
E0
E0
E0
E0
E0
E0
ENDCHAR
STARTCHAR U+2550
ENCODING 9552
SWIDTH 1000 0
DWIDTH 8 0
BBX 8 6 0 2
BITMAP
FF
FF
00
00
FF
FF
ENDCHAR
STARTCHAR U+2551
ENCODING 9553
SWIDTH 1000 0
DWIDTH 8 0
BBX 6 16 1 -2
BITMAP
CC
CC
CC
CC
CC
CC
CC
CC
CC
CC
CC
CC
CC
CC
CC
CC
ENDCHAR
STARTCHAR U+2552
ENCODING 9554
SWIDTH 1000 0
DWIDTH 8 0
BBX 5 10 3 -2
BITMAP
F8
F8
C0
C0
F8
F8
C0
C0
C0
C0
ENDCHAR
STARTCHAR U+2553
ENCODING 9555
SWIDTH 1000 0
DWIDTH 8 0
BBX 7 8 1 -2
BITMAP
FE
FE
CC
CC
CC
CC
CC
CC
ENDCHAR
STARTCHAR U+2554
ENCODING 9556
SWIDTH 1000 0
DWIDTH 8 0
BBX 7 10 1 -2
BITMAP
FE
FE
C0
C0
CE
CE
CC
CC
CC
CC
ENDCHAR
STARTCHAR U+2555
ENCODING 9557
SWIDTH 1000 0
DWIDTH 8 0
BBX 5 10 0 -2
BITMAP
F8
F8
18
18
F8
F8
18
18
18
18
ENDCHAR
STARTCHAR U+2556
ENCODING 9558
SWIDTH 1000 0
DWIDTH 8 0
BBX 7 8 0 -2
BITMAP
FE
FE
66
66
66
66
66
66
ENDCHAR
STARTCHAR U+2557
ENCODING 9559
SWIDTH 1000 0
DWIDTH 8 0
BBX 7 10 0 -2
BITMAP
FE
FE
06
06
E6
E6
66
66
66
66
ENDCHAR
STARTCHAR U+2558
ENCODING 9560
SWIDTH 1000 0
DWIDTH 8 0
BBX 5 12 3 2
BITMAP
C0
C0
C0
C0
C0
C0
F8
F8
C0
C0
F8
F8
ENDCHAR
STARTCHAR U+2559
ENCODING 9561
SWIDTH 1000 0
DWIDTH 8 0
BBX 7 10 1 4
BITMAP
CC
CC
CC
CC
CC
CC
CC
CC
FE
FE
ENDCHAR
STARTCHAR U+255A
ENCODING 9562
SWIDTH 1000 0
DWIDTH 8 0
BBX 7 12 1 2
BITMAP
CC
CC
CC
CC
CC
CC
CE
CE
C0
C0
FE
FE
ENDCHAR
STARTCHAR U+255B
ENCODING 9563
SWIDTH 1000 0
DWIDTH 8 0
BBX 5 12 0 2
BITMAP
18
18
18
18
18
18
F8
F8
18
18
F8
F8
ENDCHAR
STARTCHAR U+255C
ENCODING 9564
SWIDTH 1000 0
DWIDTH 8 0
BBX 7 10 0 4
BITMAP
66
66
66
66
66
66
66
66
FE
FE
ENDCHAR
STARTCHAR U+255D
ENCODING 9565
SWIDTH 1000 0
DWIDTH 8 0
BBX 7 12 0 2
BITMAP
66
66
66
66
66
66
E6
E6
06
06
FE
FE
ENDCHAR
STARTCHAR U+255E
ENCODING 9566
SWIDTH 1000 0
DWIDTH 8 0
BBX 5 16 3 -2
BITMAP
C0
C0
C0
C0
C0
C0
F8
F8
C0
C0
F8
F8
C0
C0
C0
C0
ENDCHAR
STARTCHAR U+255F
ENCODING 9567
SWIDTH 1000 0
DWIDTH 8 0
BBX 7 16 1 -2
BITMAP
CC
CC
CC
CC
CC
CC
CC
CC
CE
CE
CC
CC
CC
CC
CC
CC
ENDCHAR
STARTCHAR U+2560
ENCODING 9568
SWIDTH 1000 0
DWIDTH 8 0
BBX 7 16 1 -2
BITMAP
CC
CC
CC
CC
CC
CC
CE
CE
C0
C0
CE
CE
CC
CC
CC
CC
ENDCHAR
STARTCHAR U+2561
ENCODING 9569
SWIDTH 1000 0
DWIDTH 8 0
BBX 5 16 0 -2
BITMAP
18
18
18
18
18
18
F8
F8
18
18
F8
F8
18
18
18
18
ENDCHAR
STARTCHAR U+2562
ENCODING 9570
SWIDTH 1000 0
DWIDTH 8 0
BBX 7 16 0 -2
BITMAP
66
66
66
66
66
66
66
66
E6
E6
66
66
66
66
66
66
ENDCHAR
STARTCHAR U+2563
ENCODING 9571
SWIDTH 1000 0
DWIDTH 8 0
BBX 7 16 0 -2
BITMAP
66
66
66
66
66
66
E6
E6
06
06
E6
E6
66
66
66
66
ENDCHAR
STARTCHAR U+2564
ENCODING 9572
SWIDTH 1000 0
DWIDTH 8 0
BBX 8 10 0 -2
BITMAP
FF
FF
00
00
FF
FF
18
18
18
18
ENDCHAR
STARTCHAR U+2565
ENCODING 9573
SWIDTH 1000 0
DWIDTH 8 0
BBX 8 8 0 -2
BITMAP
FF
FF
66
66
66
66
66
66
ENDCHAR
STARTCHAR U+2566
ENCODING 9574
SWIDTH 1000 0
DWIDTH 8 0
BBX 8 10 0 -2
BITMAP
FF
FF
00
00
E7
E7
66
66
66
66
ENDCHAR
STARTCHAR U+2567
ENCODING 9575
SWIDTH 1000 0
DWIDTH 8 0
BBX 8 12 0 2
BITMAP
18
18
18
18
18
18
FF
FF
00
00
FF
FF
ENDCHAR
STARTCHAR U+2568
ENCODING 9576
SWIDTH 1000 0
DWIDTH 8 0
BBX 8 10 0 4
BITMAP
66
66
66
66
66
66
66
66
FF
FF
ENDCHAR
STARTCHAR U+2569
ENCODING 9577
SWIDTH 1000 0
DWIDTH 8 0
BBX 8 12 0 2
BITMAP
66
66
66
66
66
66
E7
E7
00
00
FF
FF
ENDCHAR
STARTCHAR U+256A
ENCODING 9578
SWIDTH 1000 0
DWIDTH 8 0
BBX 8 16 0 -2
BITMAP
18
18
18
18
18
18
FF
FF
00
00
FF
FF
18
18
18
18
ENDCHAR
STARTCHAR U+256B
ENCODING 9579
SWIDTH 1000 0
DWIDTH 8 0
BBX 8 16 0 -2
BITMAP
66
66
66
66
66
66
66
66
E7
E7
66
66
66
66
66
66
ENDCHAR
STARTCHAR U+256C
ENCODING 9580
SWIDTH 1000 0
DWIDTH 8 0
BBX 8 16 0 -2
BITMAP
66
66
66
66
66
66
E7
E7
00
00
E7
E7
66
66
66
66
ENDCHAR
STARTCHAR U+256D
ENCODING 9581
SWIDTH 1000 0
DWIDTH 8 0
BBX 5 6 3 -2
BITMAP
38
38
60
60
C0
C0
ENDCHAR
STARTCHAR U+256E
ENCODING 9582
SWIDTH 1000 0
DWIDTH 8 0
BBX 5 6 0 -2
BITMAP
E0
E0
30
30
18
18
ENDCHAR
STARTCHAR U+256F
ENCODING 9583
SWIDTH 1000 0
DWIDTH 8 0
BBX 5 8 0 6
BITMAP
18
18
18
18
30
30
E0
E0
ENDCHAR
STARTCHAR U+2570
ENCODING 9584
SWIDTH 1000 0
DWIDTH 8 0
BBX 5 8 3 6
BITMAP
C0
C0
C0
C0
60
60
38
38
ENDCHAR
STARTCHAR U+2571
ENCODING 9585
SWIDTH 1000 0
DWIDTH 8 0
BBX 8 16 0 -2
BITMAP
01
01
02
02
04
04
08
08
10
10
20
20
40
40
80
80
ENDCHAR
STARTCHAR U+2572
ENCODING 9586
SWIDTH 1000 0
DWIDTH 8 0
BBX 8 16 0 -2
BITMAP
80
80
40
40
20
20
10
10
08
08
04
04
02
02
01
01
ENDCHAR
STARTCHAR U+2573
ENCODING 9587
SWIDTH 1000 0
DWIDTH 8 0
BBX 8 16 0 -2
BITMAP
81
81
42
42
24
24
18
18
18
18
24
24
42
42
81
81
ENDCHAR
STARTCHAR U+2574
ENCODING 9588
SWIDTH 1000 0
DWIDTH 8 0
BBX 4 2 0 4
BITMAP
F0
F0
ENDCHAR
STARTCHAR U+2575
ENCODING 9589
SWIDTH 1000 0
DWIDTH 8 0
BBX 2 9 3 5
BITMAP
C0
C0
C0
C0
C0
C0
C0
C0
C0
ENDCHAR
STARTCHAR U+2576
ENCODING 9590
SWIDTH 1000 0
DWIDTH 8 0
BBX 4 2 4 4
BITMAP
F0
F0
ENDCHAR
STARTCHAR U+2577
ENCODING 9591
SWIDTH 1000 0
DWIDTH 8 0
BBX 2 7 3 -2
BITMAP
C0
C0
C0
C0
C0
C0
C0
ENDCHAR
STARTCHAR U+2578
ENCODING 9592
SWIDTH 1000 0
DWIDTH 8 0
BBX 4 4 0 4
BITMAP
F0
F0
F0
F0
ENDCHAR
STARTCHAR U+2579
ENCODING 9593
SWIDTH 1000 0
DWIDTH 8 0
BBX 3 8 3 6
BITMAP
E0
E0
E0
E0
E0
E0
E0
E0
ENDCHAR
STARTCHAR U+257A
ENCODING 9594
SWIDTH 1000 0
DWIDTH 8 0
BBX 4 4 4 4
BITMAP
F0
F0
F0
F0
ENDCHAR
STARTCHAR U+257B
ENCODING 9595
SWIDTH 1000 0
DWIDTH 8 0
BBX 3 8 3 -2
BITMAP
E0
E0
E0
E0
E0
E0
E0
E0
ENDCHAR
STARTCHAR U+257C
ENCODING 9596
SWIDTH 1000 0
DWIDTH 8 0
BBX 8 4 0 4
BITMAP
0F
0F
FF
FF
ENDCHAR
STARTCHAR U+257D
ENCODING 9597
SWIDTH 1000 0
DWIDTH 8 0
BBX 3 16 3 -2
BITMAP
C0
C0
C0
C0
C0
C0
C0
C0
E0
E0
E0
E0
E0
E0
E0
E0
ENDCHAR
STARTCHAR U+257E
ENCODING 9598
SWIDTH 1000 0
DWIDTH 8 0
BBX 8 4 0 4
BITMAP
F0
F0
FF
FF
ENDCHAR
STARTCHAR U+257F
ENCODING 9599
SWIDTH 1000 0
DWIDTH 8 0
BBX 3 16 3 -2
BITMAP
E0
E0
E0
E0
E0
E0
E0
E0
C0
C0
C0
C0
C0
C0
C0
C0
ENDCHAR
STARTCHAR U+2580
ENCODING 9600
SWIDTH 1000 0
DWIDTH 8 0
BBX 8 8 0 6
BITMAP
FF
FF
FF
FF
FF
FF
FF
FF
ENDCHAR
STARTCHAR U+2581
ENCODING 9601
SWIDTH 1000 0
DWIDTH 8 0
BBX 8 2 0 -2
BITMAP
FF
FF
ENDCHAR
STARTCHAR U+2582
ENCODING 9602
SWIDTH 1000 0
DWIDTH 8 0
BBX 8 4 0 -2
BITMAP
FF
FF
FF
FF
ENDCHAR
STARTCHAR U+2583
ENCODING 9603
SWIDTH 1000 0
DWIDTH 8 0
BBX 8 6 0 -2
BITMAP
FF
FF
FF
FF
FF
FF
ENDCHAR
STARTCHAR U+2584
ENCODING 9604
SWIDTH 1000 0
DWIDTH 8 0
BBX 8 8 0 -2
BITMAP
FF
FF
FF
FF
FF
FF
FF
FF
ENDCHAR
STARTCHAR U+2585
ENCODING 9605
SWIDTH 1000 0
DWIDTH 8 0
BBX 8 10 0 -2
BITMAP
FF
FF
FF
FF
FF
FF
FF
FF
FF
FF
ENDCHAR
STARTCHAR U+2586
ENCODING 9606
SWIDTH 1000 0
DWIDTH 8 0
BBX 8 12 0 -2
BITMAP
FF
FF
FF
FF
FF
FF
FF
FF
FF
FF
FF
FF
ENDCHAR
STARTCHAR U+2587
ENCODING 9607
SWIDTH 1000 0
DWIDTH 8 0
BBX 8 14 0 -2
BITMAP
FF
FF
FF
FF
FF
FF
FF
FF
FF
FF
FF
FF
FF
FF
ENDCHAR
STARTCHAR U+2588
ENCODING 9608
SWIDTH 1000 0
DWIDTH 8 0
BBX 8 16 0 -2
BITMAP
FF
FF
FF
FF
FF
FF
FF
FF
FF
FF
FF
FF
FF
FF
FF
FF
ENDCHAR
STARTCHAR U+2589
ENCODING 9609
SWIDTH 1000 0
DWIDTH 8 0
BBX 7 16 0 -2
BITMAP
FE
FE
FE
FE
FE
FE
FE
FE
FE
FE
FE
FE
FE
FE
FE
FE
ENDCHAR
STARTCHAR U+258A
ENCODING 9610
SWIDTH 1000 0
DWIDTH 8 0
BBX 6 16 0 -2
BITMAP
FC
FC
FC
FC
FC
FC
FC
FC
FC
FC
FC
FC
FC
FC
FC
FC
ENDCHAR
STARTCHAR U+258B
ENCODING 9611
SWIDTH 1000 0
DWIDTH 8 0
BBX 5 16 0 -2
BITMAP
F8
F8
F8
F8
F8
F8
F8
F8
F8
F8
F8
F8
F8
F8
F8
F8
ENDCHAR
STARTCHAR U+258C
ENCODING 9612
SWIDTH 1000 0
DWIDTH 8 0
BBX 4 16 0 -2
BITMAP
F0
F0
F0
F0
F0
F0
F0
F0
F0
F0
F0
F0
F0
F0
F0
F0
ENDCHAR
STARTCHAR U+258D
ENCODING 9613
SWIDTH 1000 0
DWIDTH 8 0
BBX 3 16 0 -2
BITMAP
E0
E0
E0
E0
E0
E0
E0
E0
E0
E0
E0
E0
E0
E0
E0
E0
ENDCHAR
STARTCHAR U+258E
ENCODING 9614
SWIDTH 1000 0
DWIDTH 8 0
BBX 2 16 0 -2
BITMAP
C0
C0
C0
C0
C0
C0
C0
C0
C0
C0
C0
C0
C0
C0
C0
C0
ENDCHAR
STARTCHAR U+258F
ENCODING 9615
SWIDTH 1000 0
DWIDTH 8 0
BBX 1 16 0 -2
BITMAP
80
80
80
80
80
80
80
80
80
80
80
80
80
80
80
80
ENDCHAR
STARTCHAR U+2590
ENCODING 9616
SWIDTH 1000 0
DWIDTH 8 0
BBX 4 16 4 -2
BITMAP
F0
F0
F0
F0
F0
F0
F0
F0
F0
F0
F0
F0
F0
F0
F0
F0
ENDCHAR
STARTCHAR U+2591
ENCODING 9617
SWIDTH 1000 0
DWIDTH 8 0
BBX 6 16 1 -2
BITMAP
C0
C0
0C
0C
C0
C0
0C
0C
C0
C0
0C
0C
C0
C0
0C
0C
ENDCHAR
STARTCHAR U+2592
ENCODING 9618
SWIDTH 1000 0
DWIDTH 8 0
BBX 8 16 0 -2
BITMAP
AA
AA
55
55
AA
AA
55
55
AA
AA
55
55
AA
AA
55
55
ENDCHAR
STARTCHAR U+2593
ENCODING 9619
SWIDTH 1000 0
DWIDTH 8 0
BBX 8 16 0 -2
BITMAP
9F
9F
F9
F9
9F
9F
F9
F9
9F
9F
F9
F9
9F
9F
F9
F9
ENDCHAR
STARTCHAR U+2594
ENCODING 9620
SWIDTH 1000 0
DWIDTH 8 0
BBX 8 2 0 12
BITMAP
FF
FF
ENDCHAR
STARTCHAR U+2595
ENCODING 9621
SWIDTH 1000 0
DWIDTH 8 0
BBX 1 16 7 -2
BITMAP
80
80
80
80
80
80
80
80
80
80
80
80
80
80
80
80
ENDCHAR
STARTCHAR U+2596
ENCODING 9622
SWIDTH 1000 0
DWIDTH 8 0
BBX 4 8 0 -2
BITMAP
F0
F0
F0
F0
F0
F0
F0
F0
ENDCHAR
STARTCHAR U+2597
ENCODING 9623
SWIDTH 1000 0
DWIDTH 8 0
BBX 4 8 4 -2
BITMAP
F0
F0
F0
F0
F0
F0
F0
F0
ENDCHAR
STARTCHAR U+2598
ENCODING 9624
SWIDTH 1000 0
DWIDTH 8 0
BBX 4 8 0 6
BITMAP
F0
F0
F0
F0
F0
F0
F0
F0
ENDCHAR
STARTCHAR U+2599
ENCODING 9625
SWIDTH 1000 0
DWIDTH 8 0
BBX 8 16 0 -2
BITMAP
F0
F0
F0
F0
F0
F0
F0
F0
FF
FF
FF
FF
FF
FF
FF
FF
ENDCHAR
STARTCHAR U+259A
ENCODING 9626
SWIDTH 1000 0
DWIDTH 8 0
BBX 8 16 0 -2
BITMAP
F0
F0
F0
F0
F0
F0
F0
F0
0F
0F
0F
0F
0F
0F
0F
0F
ENDCHAR
STARTCHAR U+259B
ENCODING 9627
SWIDTH 1000 0
DWIDTH 8 0
BBX 8 16 0 -2
BITMAP
FF
FF
FF
FF
FF
FF
FF
FF
F0
F0
F0
F0
F0
F0
F0
F0
ENDCHAR
STARTCHAR U+259C
ENCODING 9628
SWIDTH 1000 0
DWIDTH 8 0
BBX 8 16 0 -2
BITMAP
FF
FF
FF
FF
FF
FF
FF
FF
0F
0F
0F
0F
0F
0F
0F
0F
ENDCHAR
STARTCHAR U+259D
ENCODING 9629
SWIDTH 1000 0
DWIDTH 8 0
BBX 4 8 4 6
BITMAP
F0
F0
F0
F0
F0
F0
F0
F0
ENDCHAR
STARTCHAR U+259E
ENCODING 9630
SWIDTH 1000 0
DWIDTH 8 0
BBX 8 16 0 -2
BITMAP
0F
0F
0F
0F
0F
0F
0F
0F
F0
F0
F0
F0
F0
F0
F0
F0
ENDCHAR
STARTCHAR U+259F
ENCODING 9631
SWIDTH 1000 0
DWIDTH 8 0
BBX 8 16 0 -2
BITMAP
0F
0F
0F
0F
0F
0F
0F
0F
FF
FF
FF
FF
FF
FF
FF
FF
ENDCHAR
STARTCHAR U+25A0
ENCODING 9632
SWIDTH 1000 0
DWIDTH 8 0
BBX 7 8 0 2
BITMAP
FE
FE
FE
FE
FE
FE
FE
FE
ENDCHAR
STARTCHAR U+25A1
ENCODING 9633
SWIDTH 1000 0
DWIDTH 8 0
BBX 7 8 0 2
BITMAP
FE
FE
C6
C6
C6
C6
FE
FE
ENDCHAR
STARTCHAR U+25AA
ENCODING 9642
SWIDTH 1000 0
DWIDTH 8 0
BBX 6 6 1 2
BITMAP
FC
FC
FC
FC
FC
FC
ENDCHAR
STARTCHAR U+25AB
ENCODING 9643
SWIDTH 1000 0
DWIDTH 8 0
BBX 6 6 1 2
BITMAP
FC
FC
CC
CC
FC
FC
ENDCHAR
STARTCHAR U+25AC
ENCODING 9644
SWIDTH 1000 0
DWIDTH 8 0
BBX 6 4 1 0
BITMAP
FC
FC
FC
FC
ENDCHAR
STARTCHAR U+25B2
ENCODING 9650
SWIDTH 1000 0
DWIDTH 8 0
BBX 8 8 0 2
BITMAP
18
18
3C
3C
7E
7E
FF
FF
ENDCHAR
STARTCHAR U+25BA
ENCODING 9658
SWIDTH 1000 0
DWIDTH 8 0
BBX 6 10 1 0
BITMAP
C0
C0
F0
F0
FC
FC
F0
F0
C0
C0
ENDCHAR
STARTCHAR U+25BC
ENCODING 9660
SWIDTH 1000 0
DWIDTH 8 0
BBX 8 8 0 2
BITMAP
FF
FF
7E
7E
3C
3C
18
18
ENDCHAR
STARTCHAR U+25C4
ENCODING 9668
SWIDTH 1000 0
DWIDTH 8 0
BBX 6 10 1 0
BITMAP
0C
0C
3C
3C
FC
FC
3C
3C
0C
0C
ENDCHAR
STARTCHAR U+25C6
ENCODING 9670
SWIDTH 1000 0
DWIDTH 8 0
BBX 8 14 0 0
BITMAP
18
18
3C
3C
7E
7E
FF
FF
7E
7E
3C
3C
18
18
ENDCHAR
STARTCHAR U+25CA
ENCODING 9674
SWIDTH 1000 0
DWIDTH 8 0
BBX 8 14 0 0
BITMAP
18
18
3C
3C
66
66
C3
C3
66
66
3C
3C
18
18
ENDCHAR
STARTCHAR U+25CB
ENCODING 9675
SWIDTH 1000 0
DWIDTH 8 0
BBX 7 8 0 2
BITMAP
7C
7C
C6
C6
C6
C6
7C
7C
ENDCHAR
STARTCHAR U+25CF
ENCODING 9679
SWIDTH 1000 0
DWIDTH 8 0
BBX 7 8 0 2
BITMAP
7C
7C
FE
FE
FE
FE
7C
7C
ENDCHAR
STARTCHAR U+25D8
ENCODING 9688
SWIDTH 1000 0
DWIDTH 8 0
BBX 8 16 0 -2
BITMAP
FF
FF
FF
FF
83
83
01
01
01
01
83
83
FF
FF
FF
FF
ENDCHAR
STARTCHAR U+25D9
ENCODING 9689
SWIDTH 1000 0
DWIDTH 8 0
BBX 8 16 0 -2
BITMAP
FF
FF
FF
FF
83
83
39
39
39
39
83
83
FF
FF
FF
FF
ENDCHAR
STARTCHAR U+25E6
ENCODING 9702
SWIDTH 1000 0
DWIDTH 8 0
BBX 6 8 1 2
BITMAP
78
78
CC
CC
CC
CC
78
78
ENDCHAR
STARTCHAR U+263A
ENCODING 9786
SWIDTH 1000 0
DWIDTH 8 0
BBX 8 16 0 -2
BITMAP
7E
7E
81
81
A5
A5
81
81
A5
A5
99
99
81
81
7E
7E
ENDCHAR
STARTCHAR U+263B
ENCODING 9787
SWIDTH 1000 0
DWIDTH 8 0
BBX 8 16 0 -2
BITMAP
7E
7E
FF
FF
DB
DB
FF
FF
BD
BD
C3
C3
FF
FF
7E
7E
ENDCHAR
STARTCHAR U+263C
ENCODING 9788
SWIDTH 1000 0
DWIDTH 8 0
BBX 8 14 0 0
BITMAP
18
18
5A
5A
3C
3C
E7
E7
3C
3C
5A
5A
18
18
ENDCHAR
STARTCHAR U+2640
ENCODING 9792
SWIDTH 1000 0
DWIDTH 8 0
BBX 6 14 1 0
BITMAP
78
78
CC
CC
CC
CC
78
78
30
30
FC
FC
30
30
ENDCHAR
STARTCHAR U+2642
ENCODING 9794
SWIDTH 1000 0
DWIDTH 8 0
BBX 7 14 0 0
BITMAP
1E
1E
0E
0E
1A
1A
70
70
D8
D8
D8
D8
70
70
ENDCHAR
STARTCHAR U+2660
ENCODING 9824
SWIDTH 1000 0
DWIDTH 8 0
BBX 8 14 0 0
BITMAP
18
18
3C
3C
7E
7E
FF
FF
FF
FF
18
18
3C
3C
ENDCHAR
STARTCHAR U+2663
ENCODING 9827
SWIDTH 1000 0
DWIDTH 8 0
BBX 8 12 0 0
BITMAP
3C
3C
3C
3C
FF
FF
E7
E7
18
18
3C
3C
ENDCHAR
STARTCHAR U+2665
ENCODING 9829
SWIDTH 1000 0
DWIDTH 8 0
BBX 8 14 0 0
BITMAP
66
66
FF
FF
FF
FF
FF
FF
7E
7E
3C
3C
18
18
ENDCHAR
STARTCHAR U+2666
ENCODING 9830
SWIDTH 1000 0
DWIDTH 8 0
BBX 8 14 0 0
BITMAP
18
18
3C
3C
7E
7E
FF
FF
7E
7E
3C
3C
18
18
ENDCHAR
STARTCHAR U+266A
ENCODING 9834
SWIDTH 1000 0
DWIDTH 8 0
BBX 8 14 0 0
BITMAP
18
18
1E
1E
1B
1B
18
18
78
78
F8
F8
70
70
ENDCHAR
STARTCHAR U+266B
ENCODING 9835
SWIDTH 1000 0
DWIDTH 8 0
BBX 8 14 0 0
BITMAP
30
30
3C
3C
33
33
33
33
F3
F3
6F
6F
06
06
ENDCHAR
STARTCHAR U+2713
ENCODING 10003
SWIDTH 1000 0
DWIDTH 8 0
BBX 7 12 1 0
BITMAP
06
06
0C
0C
0C
0C
18
18
D8
D8
70
70
ENDCHAR
STARTCHAR U+F001
ENCODING 61441
SWIDTH 1000 0
DWIDTH 8 0
BBX 7 14 0 0
BITMAP
7C
7C
C0
C0
FC
FC
CC
CC
CC
CC
CC
CC
EE
EE
ENDCHAR
STARTCHAR U+F002
ENCODING 61442
SWIDTH 1000 0
DWIDTH 8 0
BBX 8 14 0 0
BITMAP
7E
7E
C6
C6
C6
C6
E6
E6
C6
C6
C6
C6
EF
EF
ENDCHAR
STARTCHAR U+F812
ENCODING 63506
SWIDTH 1000 0
DWIDTH 8 0
BBX 8 14 0 0
BITMAP
07
07
09
09
15
15
2D
2D
55
55
BD
BD
A7
E7
ENDCHAR
STARTCHAR U+F813
ENCODING 63507
SWIDTH 1000 0
DWIDTH 8 0
BBX 8 14 0 0
BITMAP
07
07
0F
0F
1F
1F
3F
3F
77
77
FF
FF
E7
E7
ENDCHAR
STARTCHAR U+F8FF
ENCODING 63743
SWIDTH 1000 0
DWIDTH 8 0
BBX 8 14 0 0
BITMAP
07
07
0F
0F
1F
1F
3F
3F
77
77
FF
FF
E7
E7
ENDCHAR
STARTCHAR U+FB00
ENCODING 64256
SWIDTH 1000 0
DWIDTH 8 0
BBX 8 14 0 0
BITMAP
77
77
CC
CC
CC
CC
FE
FE
CC
CC
CC
CC
EE
EE
ENDCHAR
STARTCHAR U+FB01
ENCODING 64257
SWIDTH 1000 0
DWIDTH 8 0
BBX 7 14 0 0
BITMAP
7C
7C
C0
C0
FC
FC
CC
CC
CC
CC
CC
CC
EE
EE
ENDCHAR
STARTCHAR U+FB02
ENCODING 64258
SWIDTH 1000 0
DWIDTH 8 0
BBX 8 14 0 0
BITMAP
7E
7E
C6
C6
C6
C6
E6
E6
C6
C6
C6
C6
EF
EF
ENDCHAR
STARTCHAR U+FB03
ENCODING 64259
SWIDTH 1000 0
DWIDTH 8 0
BBX 8 14 0 0
BITMAP
6F
6F
D8
D8
FF
FF
DB
DB
DB
DB
DB
DB
DB
DB
ENDCHAR
STARTCHAR U+FB04
ENCODING 64260
SWIDTH 1000 0
DWIDTH 8 0
BBX 8 14 0 0
BITMAP
6F
6F
DB
DB
FB
FB
DB
DB
DB
DB
DB
DB
DB
DB
ENDCHAR
STARTCHAR U+FFFC
ENCODING 65532
SWIDTH 1000 0
DWIDTH 8 0
BBX 8 14 0 0
BITMAP
AA
AA
01
01
98
98
25
25
98
98
01
01
AA
AA
ENDCHAR
STARTCHAR U+FFFD
ENCODING 65533
SWIDTH 1000 0
DWIDTH 8 0
BBX 8 14 0 0
BITMAP
18
18
24
24
52
52
E7
E7
7E
7E
24
24
18
18
ENDCHAR
STARTCHAR U+1FB6C
ENCODING 129900
SWIDTH 1000 0
DWIDTH 8 0
BBX 4 16 0 -2
BITMAP
80
80
C0
C0
E0
E0
F0
F0
F0
F0
E0
E0
C0
C0
80
80
ENDCHAR
STARTCHAR U+1FB6D
ENCODING 129901
SWIDTH 1000 0
DWIDTH 8 0
BBX 8 8 0 6
BITMAP
FF
FF
7E
7E
3C
3C
18
18
ENDCHAR
STARTCHAR U+1FB6E
ENCODING 129902
SWIDTH 1000 0
DWIDTH 8 0
BBX 4 16 4 -2
BITMAP
10
10
30
30
70
70
F0
F0
F0
F0
70
70
30
30
10
10
ENDCHAR
STARTCHAR U+1FB6F
ENCODING 129903
SWIDTH 1000 0
DWIDTH 8 0
BBX 8 8 0 -2
BITMAP
18
18
3C
3C
7E
7E
FF
FF
ENDCHAR
STARTCHAR U+1FB70
ENCODING 129904
SWIDTH 1000 0
DWIDTH 8 0
BBX 1 16 1 -2
BITMAP
80
80
80
80
80
80
80
80
80
80
80
80
80
80
80
80
ENDCHAR
STARTCHAR U+1FB71
ENCODING 129905
SWIDTH 1000 0
DWIDTH 8 0
BBX 1 16 2 -2
BITMAP
80
80
80
80
80
80
80
80
80
80
80
80
80
80
80
80
ENDCHAR
STARTCHAR U+1FB72
ENCODING 129906
SWIDTH 1000 0
DWIDTH 8 0
BBX 1 16 3 -2
BITMAP
80
80
80
80
80
80
80
80
80
80
80
80
80
80
80
80
ENDCHAR
STARTCHAR U+1FB73
ENCODING 129907
SWIDTH 1000 0
DWIDTH 8 0
BBX 1 16 4 -2
BITMAP
80
80
80
80
80
80
80
80
80
80
80
80
80
80
80
80
ENDCHAR
STARTCHAR U+1FB74
ENCODING 129908
SWIDTH 1000 0
DWIDTH 8 0
BBX 1 16 5 -2
BITMAP
80
80
80
80
80
80
80
80
80
80
80
80
80
80
80
80
ENDCHAR
STARTCHAR U+1FB75
ENCODING 129909
SWIDTH 1000 0
DWIDTH 8 0
BBX 1 16 6 -2
BITMAP
80
80
80
80
80
80
80
80
80
80
80
80
80
80
80
80
ENDCHAR
STARTCHAR U+1FB76
ENCODING 129910
SWIDTH 1000 0
DWIDTH 8 0
BBX 8 2 0 10
BITMAP
FF
FF
ENDCHAR
STARTCHAR U+1FB77
ENCODING 129911
SWIDTH 1000 0
DWIDTH 8 0
BBX 8 2 0 8
BITMAP
FF
FF
ENDCHAR
STARTCHAR U+1FB78
ENCODING 129912
SWIDTH 1000 0
DWIDTH 8 0
BBX 8 2 0 6
BITMAP
FF
FF
ENDCHAR
STARTCHAR U+1FB79
ENCODING 129913
SWIDTH 1000 0
DWIDTH 8 0
BBX 8 2 0 4
BITMAP
FF
FF
ENDCHAR
STARTCHAR U+1FB7A
ENCODING 129914
SWIDTH 1000 0
DWIDTH 8 0
BBX 8 2 0 2
BITMAP
FF
FF
ENDCHAR
STARTCHAR U+1FB7B
ENCODING 129915
SWIDTH 1000 0
DWIDTH 8 0
BBX 8 2 0 0
BITMAP
FF
FF
ENDCHAR
STARTCHAR U+1FB7C
ENCODING 129916
SWIDTH 1000 0
DWIDTH 8 0
BBX 8 16 0 -2
BITMAP
80
80
80
80
80
80
80
80
80
80
80
80
80
80
FF
FF
ENDCHAR
STARTCHAR U+1FB7D
ENCODING 129917
SWIDTH 1000 0
DWIDTH 8 0
BBX 8 16 0 -2
BITMAP
FF
FF
80
80
80
80
80
80
80
80
80
80
80
80
80
80
ENDCHAR
STARTCHAR U+1FB7E
ENCODING 129918
SWIDTH 1000 0
DWIDTH 8 0
BBX 8 16 0 -2
BITMAP
FF
FF
01
01
01
01
01
01
01
01
01
01
01
01
01
01
ENDCHAR
STARTCHAR U+1FB7F
ENCODING 129919
SWIDTH 1000 0
DWIDTH 8 0
BBX 8 16 0 -2
BITMAP
01
01
01
01
01
01
01
01
01
01
01
01
01
01
FF
FF
ENDCHAR
STARTCHAR U+1FB80
ENCODING 129920
SWIDTH 1000 0
DWIDTH 8 0
BBX 8 16 0 -2
BITMAP
FF
FF
00
00
00
00
00
00
00
00
00
00
00
00
FF
FF
ENDCHAR
STARTCHAR U+1FB81
ENCODING 129921
SWIDTH 1000 0
DWIDTH 8 0
BBX 8 16 0 -2
BITMAP
FF
FF
00
00
FF
FF
00
00
FF
FF
00
00
00
00
FF
FF
ENDCHAR
STARTCHAR U+1FB82
ENCODING 129922
SWIDTH 1000 0
DWIDTH 8 0
BBX 8 4 0 10
BITMAP
FF
FF
FF
FF
ENDCHAR
STARTCHAR U+1FB83
ENCODING 129923
SWIDTH 1000 0
DWIDTH 8 0
BBX 8 6 0 8
BITMAP
FF
FF
FF
FF
FF
FF
ENDCHAR
STARTCHAR U+1FB84
ENCODING 129924
SWIDTH 1000 0
DWIDTH 8 0
BBX 8 10 0 4
BITMAP
FF
FF
FF
FF
FF
FF
FF
FF
FF
FF
ENDCHAR
STARTCHAR U+1FB85
ENCODING 129925
SWIDTH 1000 0
DWIDTH 8 0
BBX 8 12 0 2
BITMAP
FF
FF
FF
FF
FF
FF
FF
FF
FF
FF
FF
FF
ENDCHAR
STARTCHAR U+1FB86
ENCODING 129926
SWIDTH 1000 0
DWIDTH 8 0
BBX 8 14 0 0
BITMAP
FF
FF
FF
FF
FF
FF
FF
FF
FF
FF
FF
FF
FF
FF
ENDCHAR
STARTCHAR U+1FB8C
ENCODING 129932
SWIDTH 1000 0
DWIDTH 8 0
BBX 4 16 0 -2
BITMAP
A0
A0
50
50
A0
A0
50
50
A0
A0
50
50
A0
A0
50
50
ENDCHAR
STARTCHAR U+1FB8D
ENCODING 129933
SWIDTH 1000 0
DWIDTH 8 0
BBX 4 16 4 -2
BITMAP
A0
A0
50
50
A0
A0
50
50
A0
A0
50
50
A0
A0
50
50
ENDCHAR
STARTCHAR U+1FB8E
ENCODING 129934
SWIDTH 1000 0
DWIDTH 8 0
BBX 8 8 0 6
BITMAP
AA
AA
55
55
AA
AA
55
55
ENDCHAR
STARTCHAR U+1FB8F
ENCODING 129935
SWIDTH 1000 0
DWIDTH 8 0
BBX 8 8 0 -2
BITMAP
AA
AA
55
55
AA
AA
55
55
ENDCHAR
STARTCHAR U+1FB90
ENCODING 129936
SWIDTH 1000 0
DWIDTH 8 0
BBX 8 16 0 -2
BITMAP
55
55
AA
AA
55
55
AA
AA
55
55
AA
AA
55
55
AA
AA
ENDCHAR
STARTCHAR U+1FB91
ENCODING 129937
SWIDTH 1000 0
DWIDTH 8 0
BBX 8 16 0 -2
BITMAP
FF
FF
FF
FF
FF
FF
FF
FF
55
55
AA
AA
55
55
AA
AA
ENDCHAR
STARTCHAR U+1FB92
ENCODING 129938
SWIDTH 1000 0
DWIDTH 8 0
BBX 8 16 0 -2
BITMAP
55
55
AA
AA
55
55
AA
AA
FF
FF
FF
FF
FF
FF
FF
FF
ENDCHAR
STARTCHAR U+1FB94
ENCODING 129940
SWIDTH 1000 0
DWIDTH 8 0
BBX 8 16 0 -2
BITMAP
5F
5F
AF
AF
5F
5F
AF
AF
5F
5F
AF
AF
5F
5F
AF
AF
ENDCHAR
STARTCHAR U+1FB95
ENCODING 129941
SWIDTH 1000 0
DWIDTH 8 0
BBX 8 16 0 -2
BITMAP
CC
CC
CC
CC
33
33
33
33
CC
CC
CC
CC
33
33
33
33
ENDCHAR
STARTCHAR U+1FB96
ENCODING 129942
SWIDTH 1000 0
DWIDTH 8 0
BBX 8 16 0 -2
BITMAP
33
33
33
33
CC
CC
CC
CC
33
33
33
33
CC
CC
CC
CC
ENDCHAR
STARTCHAR U+1FB97
ENCODING 129943
SWIDTH 1000 0
DWIDTH 8 0
BBX 8 12 0 -2
BITMAP
FF
FF
FF
FF
00
00
00
00
FF
FF
FF
FF
ENDCHAR
STARTCHAR U+1FB98
ENCODING 129944
SWIDTH 1000 0
DWIDTH 8 0
BBX 8 16 0 -2
BITMAP
CC
CC
66
66
33
33
99
99
CC
CC
66
66
33
33
99
99
ENDCHAR
STARTCHAR U+1FB99
ENCODING 129945
SWIDTH 1000 0
DWIDTH 8 0
BBX 8 16 0 -2
BITMAP
33
33
66
66
CC
CC
99
99
33
33
66
66
CC
CC
99
99
ENDCHAR
STARTCHAR U+1FB9A
ENCODING 129946
SWIDTH 1000 0
DWIDTH 8 0
BBX 8 16 0 -2
BITMAP
FF
FF
7E
7E
3C
3C
18
18
18
18
3C
3C
7E
7E
FF
FF
ENDCHAR
STARTCHAR U+1FB9B
ENCODING 129947
SWIDTH 1000 0
DWIDTH 8 0
BBX 8 16 0 -2
BITMAP
81
81
C3
C3
E7
E7
FF
FF
FF
FF
E7
E7
C3
C3
81
81
ENDCHAR
STARTCHAR U+1FB9C
ENCODING 129948
SWIDTH 1000 0
DWIDTH 8 0
BBX 7 14 0 0
BITMAP
AA
AA
54
54
A8
A8
50
50
A0
A0
40
40
80
80
ENDCHAR
STARTCHAR U+1FB9D
ENCODING 129949
SWIDTH 1000 0
DWIDTH 8 0
BBX 8 16 0 -2
BITMAP
AA
AA
55
55
2A
2A
15
15
0A
0A
05
05
02
02
01
01
ENDCHAR
STARTCHAR U+1FB9E
ENCODING 129950
SWIDTH 1000 0
DWIDTH 8 0
BBX 7 14 1 -2
BITMAP
02
02
04
04
0A
0A
14
14
2A
2A
54
54
AA
AA
ENDCHAR
STARTCHAR U+1FB9F
ENCODING 129951
SWIDTH 1000 0
DWIDTH 8 0
BBX 8 16 0 -2
BITMAP
80
80
40
40
A0
A0
50
50
A8
A8
54
54
AA
AA
55
55
ENDCHAR
STARTCHAR U+1FBAF
ENCODING 129967
SWIDTH 1000 0
DWIDTH 8 0
BBX 8 10 0 0
BITMAP
18
18
18
18
FF
FF
18
18
18
18
ENDCHAR
STARTCHAR U+1FBB0
ENCODING 129968
SWIDTH 1000 0
DWIDTH 8 0
BBX 6 14 0 0
BITMAP
C0
C0
E0
E0
F0
F0
F8
F8
FC
FC
C0
C0
80
80
ENDCHAR
STARTCHAR U+1FBB1
ENCODING 129969
SWIDTH 1000 0
DWIDTH 8 0
BBX 8 16 0 -2
BITMAP
FF
FF
FC
FC
F9
F9
F9
F9
F3
F3
93
93
C7
C7
FF
FF
ENDCHAR
STARTCHAR U+1FBB4
ENCODING 129972
SWIDTH 1000 0
DWIDTH 8 0
BBX 8 16 0 -2
BITMAP
FF
FF
F9
F9
F9
F9
D9
D9
99
99
01
01
9F
9F
DF
DF
ENDCHAR
STARTCHAR U+1FBB5
ENCODING 129973
SWIDTH 1000 0
DWIDTH 8 0
BBX 8 14 0 0
BITMAP
FF
FF
00
00
20
20
60
60
FE
FE
60
60
20
20
ENDCHAR
STARTCHAR U+1FBB6
ENCODING 129974
SWIDTH 1000 0
DWIDTH 8 0
BBX 8 14 0 0
BITMAP
FF
FF
00
00
04
04
06
06
7F
7F
06
06
04
04
ENDCHAR
STARTCHAR U+1FBB7
ENCODING 129975
SWIDTH 1000 0
DWIDTH 8 0
BBX 7 14 1 0
BITMAP
02
02
02
02
32
32
32
32
FC
FC
7A
7A
32
32
ENDCHAR
STARTCHAR U+1FBB8
ENCODING 129976
SWIDTH 1000 0
DWIDTH 8 0
BBX 7 14 1 0
BITMAP
02
02
02
02
32
32
7A
7A
FC
FC
32
32
32
32
ENDCHAR
STARTCHAR U+1FBB9
ENCODING 129977
SWIDTH 1000 0
DWIDTH 8 0
BBX 8 14 0 0
BITMAP
3E
3E
63
63
C1
C1
C0
C0
C0
C0
C0
C0
FF
FF
ENDCHAR
STARTCHAR U+1FBBA
ENCODING 129978
SWIDTH 1000 0
DWIDTH 8 0
BBX 8 10 0 0
BITMAP
FE
FE
03
03
03
03
03
03
FF
FF
ENDCHAR
STARTCHAR U+1FBBB
ENCODING 129979
SWIDTH 1000 0
DWIDTH 8 0
BBX 8 16 0 -2
BITMAP
66
66
66
66
E7
E7
00
00
00
00
E7
E7
66
66
66
66
ENDCHAR
STARTCHAR U+1FBBC
ENCODING 129980
SWIDTH 1000 0
DWIDTH 8 0
BBX 8 16 0 -2
BITMAP
FF
FF
01
01
01
01
31
31
79
79
31
31
01
01
01
01
ENDCHAR
STARTCHAR U+1FBCA
ENCODING 129994
SWIDTH 1000 0
DWIDTH 8 0
BBX 6 14 1 0
BITMAP
30
30
78
78
CC
CC
CC
CC
FC
FC
CC
CC
84
84
ENDCHAR
STARTCHAR U+1FBF0
ENCODING 130032
SWIDTH 1000 0
DWIDTH 8 0
BBX 8 14 0 0
BITMAP
7E
7E
C3
C3
C3
C3
81
81
C3
C3
C3
C3
7E
7E
ENDCHAR
STARTCHAR U+1FBF1
ENCODING 130033
SWIDTH 1000 0
DWIDTH 8 0
BBX 2 10 6 2
BITMAP
C0
C0
C0
C0
40
40
C0
C0
C0
C0
ENDCHAR
STARTCHAR U+1FBF2
ENCODING 130034
SWIDTH 1000 0
DWIDTH 8 0
BBX 8 14 0 0
BITMAP
7E
7E
03
03
03
03
7E
7E
C0
C0
C0
C0
7E
7E
ENDCHAR
STARTCHAR U+1FBF3
ENCODING 130035
SWIDTH 1000 0
DWIDTH 8 0
BBX 7 14 1 0
BITMAP
FC
FC
06
06
06
06
FC
FC
06
06
06
06
FC
FC
ENDCHAR
STARTCHAR U+1FBF4
ENCODING 130036
SWIDTH 1000 0
DWIDTH 8 0
BBX 8 10 0 2
BITMAP
C3
C3
C3
C3
7E
7E
03
03
03
03
ENDCHAR
STARTCHAR U+1FBF5
ENCODING 130037
SWIDTH 1000 0
DWIDTH 8 0
BBX 8 14 0 0
BITMAP
7E
7E
C0
C0
C0
C0
7E
7E
03
03
03
03
7E
7E
ENDCHAR
STARTCHAR U+1FBF6
ENCODING 130038
SWIDTH 1000 0
DWIDTH 8 0
BBX 8 14 0 0
BITMAP
7E
7E
C0
C0
C0
C0
7E
7E
C3
C3
C3
C3
7E
7E
ENDCHAR
STARTCHAR U+1FBF7
ENCODING 130039
SWIDTH 1000 0
DWIDTH 8 0
BBX 8 12 0 2
BITMAP
7E
7E
C3
C3
C3
C3
01
01
03
03
03
03
ENDCHAR
STARTCHAR U+1FBF8
ENCODING 130040
SWIDTH 1000 0
DWIDTH 8 0
BBX 8 14 0 0
BITMAP
7E
7E
C3
C3
C3
C3
7E
7E
C3
C3
C3
C3
7E
7E
ENDCHAR
STARTCHAR U+1FBF9
ENCODING 130041
SWIDTH 1000 0
DWIDTH 8 0
BBX 8 14 0 0
BITMAP
7E
7E
C3
C3
C3
C3
7E
7E
03
03
03
03
7E
7E
ENDCHAR
ENDFONT
